<svg id="Layer_1" data-name="Layer 1" xmlns="http://www.w3.org/2000/svg" viewBox="0 0 144.16 149.88"><defs><style>.cls-1{fill:#fff;}</style></defs><title>Artboard 1</title><path class="cls-1" d="M105.92,11.21A59.5,59.5,0,1,0,121,94,59.5,59.5,0,0,0,105.92,11.21ZM35.73,67.33,31.42,63l44-44,4.31,4.31Zm51,26.84a17.29,17.29,0,0,1-24.4-.2L40.71,72.31,45,68.06,66.66,89.77A11.15,11.15,0,1,0,82.42,74L69.18,60.76,60.72,52.3l4.23-4.23L83.39,66.53a11.21,11.21,0,0,0,15.84.18l4.23,4.23a17.16,17.16,0,0,1-12.89,4.88A17.4,17.4,0,0,1,86.77,94.17Zm24.31-30.86L79.75,32l4.3-4.3,25.38,25.38C113.14,56.78,113.78,60.62,111.08,63.32Z"/><polygon class="cls-1" points="107.22 131.09 100.65 139.42 92.75 131.09 90.5 131.09 99.53 140.84 92.94 149.2 95.19 149.14 109.45 131.09 107.22 131.09"/><path class="cls-1" d="M37.21,149.24h-8a5,5,0,0,1-5-5V136a5,5,0,0,1,5-5h8a5,5,0,0,1,5,5v8.2A5,5,0,0,1,37.21,149.24Zm-8-16.47A3.27,3.27,0,0,0,26,136v8.2a3.27,3.27,0,0,0,3.27,3.27h8a3.27,3.27,0,0,0,3.27-3.27V136a3.27,3.27,0,0,0-3.27-3.27Z"/><path class="cls-1" d="M128.75,149.24h-4.9a5,5,0,0,1-5-5V131.05h1.74v13.18a3.27,3.27,0,0,0,3.27,3.27h6.94A2,2,0,0,1,128.75,149.24Z"/><path class="cls-1" d="M59.94,139.2H52.43a3.26,3.26,0,1,1,0-6.52H63.92c0-1-.89-1.74-2.25-1.74H52.43a5,5,0,1,0,0,10h7.51a3.23,3.23,0,1,1,0,6.47H48c0,1.22,1,1.74,2.56,1.74h9.36a5,5,0,1,0,0-9.94Z"/><path class="cls-1" d="M82.44,139.2H74.93a3.26,3.26,0,1,1,0-6.52H86.42c0-1-.89-1.74-2.25-1.74H74.93a5,5,0,1,0,0,10h7.51a3.23,3.23,0,1,1,0,6.47H70.53c0,1.22,1,1.74,2.56,1.74h9.36a5,5,0,1,0,0-9.94Z"/><path class="cls-1" d="M16,139.65A5,5,0,0,0,17.63,136H15.89a3.26,3.26,0,0,1-3.3,3.22H4.44V141h9.5a3.24,3.24,0,1,1,0,6.48H4.44v1.75h9.48A5,5,0,0,0,16,139.65Z"/><path class="cls-1" d="M141.81,149.2V131.14h1.73v16.53C143.54,148.84,142.64,149.2,141.81,149.2Z"/><path class="cls-1" d="M17.63,132.82H4.17V131h11C16.71,131,17.63,131.71,17.63,132.82Z"/><rect class="cls-1" x="0.62" y="131.05" width="1.77" height="18.13"/><rect class="cls-1" x="132.3" y="131.09" width="1.77" height="18.08"/></svg>