<?xml version="1.0" encoding="utf-8"?>
<!-- Generator: Adobe Illustrator 16.0.4, SVG Export Plug-In . SVG Version: 6.00 Build 0)  -->
<!DOCTYPE svg PUBLIC "-//W3C//DTD SVG 1.1//EN" "http://www.w3.org/Graphics/SVG/1.1/DTD/svg11.dtd">
<svg version="1.1" id="Layer_1" xmlns="http://www.w3.org/2000/svg" xmlns:xlink="http://www.w3.org/1999/xlink" x="0px" y="0px"
	 width="878.877px" height="923.872px" viewBox="0 0 878.877 923.872" enable-background="new 0 0 878.877 923.872"
	 xml:space="preserve">
<g>
	<defs>
		<rect id="SVGID_1_" x="-4.597" y="-1.864" width="1439.999" height="1203"/>
	</defs>
	<clipPath id="SVGID_2_">
		<use xlink:href="#SVGID_1_"  overflow="visible"/>
	</clipPath>
	<path opacity="0.1522" clip-path="url(#SVGID_2_)" fill="none" stroke="#00AFC0" stroke-miterlimit="10" d="M-293.536,285.794
		l72.455-3.03l22.05-2.9l-2.192-17.491l-90.98,3.804l-5.29,3.666L-293.536,285.794z M-221.081,282.764l22.296-0.932l-0.246-1.968
		L-221.081,282.764z M-164.865,260.852l-36.358,1.522l2.192,17.491l18.985-2.492L-164.865,260.852z M-181.868,279.354l1.822-1.981
		l-18.985,2.492l0.246,1.968l15.222-0.638L-181.868,279.354z M-292.203,266.177l-6.127,0.261l0.837,3.405L-292.203,266.177z
		 M-322.247,286.994l17.459-0.729l11.251-0.471l-3.957-15.951L-322.247,286.994z M-322.247,286.994l24.753-17.151l-0.837-3.405
		l-120.482,5.04l-4.661,19.752L-322.247,286.994z M-423.474,291.23l4.661-19.752l-167.144,6.993l-1.053,1.44l18.881,17.37
		l142.859-5.971L-423.474,291.23z M804.976-234.233l12.297-15.05l-39.824-32.589l-9.901,17.005L804.976-234.233z M573.09,538.173
		l9.756-2.572l-7.266-38.042l-9.92,1.696L573.09,538.173z M306.983,626.623l-2.489,11.625l2.266-0.229l2.576-12.021L306.983,626.623
		z M252.026,883.965l2.156,0.306L306.76,638.02l-2.266,0.229L252.026,883.965z M13.016,67.325l4.153-4.515l2.198-12.122l-0.22-0.234
		l-34.626,23.997l20.959,1.076L13.016,67.325z M19.456,50.241l-0.309,0.213l0.22,0.234L19.456,50.241z M-208.064,207.89
		l-84.139,58.287l90.98-3.804L-208.064,207.89z M-164.865,260.852l47.607-51.788L-147,165.568l-61.063,42.322l6.841,54.483
		L-164.865,260.852z M-68.61,156.141l31.556-34.335l-7.857-26.964L-147,165.568l29.743,43.496L-68.61,156.141z M5.479,75.527
		l-20.959-1.076l-29.432,20.392l7.857,26.964L5.479,75.527z M306.76,638.02l168.737-16.925l-3.81-37.994l-162.352,42.897
		L306.76,638.02z M-442.365,824.642l-83.288,22.014l39.968,23.286l56.001-36.314L-442.365,824.642z M-485.685,869.941l240.8,140.288
		l20.925-30.838l-205.724-145.765L-485.685,869.941z"/>
	<path opacity="0.1522" clip-path="url(#SVGID_2_)" fill="none" stroke="#00AFC0" stroke-miterlimit="10" d="M-587.988,764.526
		l11.344,22.355l33.241,4.731l4.741-20.068L-587.988,764.526z M-543.403,791.613l-33.241-4.731l5.913,11.666l25.377,1.321
		L-543.403,791.613z M-545.354,799.869l-25.377-1.321l15.741,31.01l2.312,1.349L-545.354,799.869z M-554.99,829.558l1.794,3.54
		l0.518-2.191L-554.99,829.558z M-594.445,784.353l6.75,13.307l16.964,0.889l-5.913-11.666L-594.445,784.353z M-570.731,798.548
		l-16.964-0.889l9.255,18.243l23.449,13.655L-570.731,798.548z M-554.99,829.558l-23.449-13.655l20.003,39.412l5.24-22.217
		L-554.99,829.558z M37.851,716.405L-51.49,825.73l20.953,1.089l174.286-157.064l-67.6,17.861L37.851,716.405z M-51.49,825.73
		l-11.042,13.507l15.738,2.244l16.257-14.662L-51.49,825.73z M143.749,669.755L-30.537,826.819l14.699,0.773l181.583-163.649
		L143.749,669.755z M-46.794,841.481l13.421,1.905l17.535-15.794l-14.699-0.773L-46.794,841.481z M-77.725,857.827l11.053,1.57
		l19.877-17.916l-15.738-2.244L-77.725,857.827z M-46.794,841.481l-19.877,17.916l13.42,1.911l19.877-17.922L-46.794,841.481z
		 M238.242,644.896l66.252-6.647l2.489-11.625l-68.664,18.137L238.242,644.896z M-15.838,827.593l161.842,8.46l21.067-172.46
		l-1.327,0.351L-15.838,827.593z M238.242,644.896l-2.491,4.276l-6.311-2.062l-62.369,16.482l-21.067,172.46l-161.842-8.46
		l-17.535,15.794l285.4,40.578l52.468-245.717L238.242,644.896z M-53.251,861.309l300.977,42.788l4.3-20.132l-285.4-40.578
		L-53.251,861.309z M-143.351,938.134l0.884,3.568l1.083-5.977L-143.351,938.134z M-113.469,901.569l46.797-42.172l-11.053-1.57
		L-113.469,901.569z M-113.469,901.569l-27.915,34.156l-1.083,5.977l89.215-80.394l-13.42-1.911L-113.469,901.569z
		 M-144.853,939.978l2.387,1.725l-0.884-3.568L-144.853,939.978z"/>
	<path opacity="0.1522" clip-path="url(#SVGID_2_)" fill="none" stroke="#00AFC0" stroke-miterlimit="10" d="M126.99,656.062
		l-13.667,3.619l-37.175,27.936l67.601-17.861l19.2-17.305L126.99,656.062z M168.496,651.894l0.61-4.995l-6.157,5.552
		L168.496,651.894z M172.201,644.11l-3.095,2.788l-0.61,4.995l11.949-1.194l13.751-12.4L172.201,644.11z M162.949,652.45
		l-19.2,17.305l21.995-5.812l1.443-1.296l1.309-10.754L162.949,652.45z M167.187,662.647l13.257-11.948l-11.949,1.194
		L167.187,662.647z M294.865,547.577l-44.088,75.771l60.304-15.933l14.319-67.065l-27.789,4.75L294.865,547.577z M194.196,638.299
		l4.581-1.21l-2.378-0.771L194.196,638.299z M250.777,623.349l-12.458,21.411l68.664-18.137l4.098-19.207L250.777,623.349z
		 M194.196,638.299l-13.751,12.4l45.874-4.609l-27.542-9.001L194.196,638.299z M165.744,663.943l1.327-0.351l0.116-0.945
		L165.744,663.943z M180.444,650.699l-13.257,11.948l-0.116,0.945l62.369-16.482l-3.122-1.021L180.444,650.699z M-475.318,801.298
		l-27.01-19.133l-10.567,13.783L-475.318,801.298z M-512.896,795.948l-4.149,5.412l45.154,2.354l-3.427-2.416L-512.896,795.948z
		 M-517.045,801.36l-23.959,31.221l80.009-21.136l-10.896-7.731L-517.045,801.36z M-541.004,832.581l-2.715,3.543l18.066,10.531
		l83.288-22.014l-18.63-13.196L-541.004,832.581z M-558.436,855.313l32.783-8.658l-18.066-10.531L-558.436,855.313z M325.4,540.351
		l-14.319,67.065l2.353-0.619l14.271-66.843L325.4,540.351z M313.434,606.797l156.489-41.36l-4.907-48.965l-137.311,23.482
		L313.434,606.797z M465.016,516.472l4.907,48.965l103.167-27.264l-7.43-38.918L465.016,516.472z M306.983,626.623l2.353-0.625
		l4.098-19.201l-2.353,0.619L306.983,626.623z M313.434,606.797l-4.098,19.201l162.352-42.897l-1.765-17.664L313.434,606.797z
		 M471.688,583.101l104.696-27.674l-3.294-17.254l-103.167,27.264L471.688,583.101z"/>
	<path opacity="0.1522" clip-path="url(#SVGID_2_)" fill="none" stroke="#00AFC0" stroke-miterlimit="10" d="M-520.793,794.825
		l7.897,1.123l10.567-13.783l-5.672-4.02L-520.793,794.825z M-535.601,758.578l-3.061,12.967l1.709,0.242l2.865-12.136
		L-535.601,758.578z M-536.953,771.787l-1.709-0.242l-4.741,20.068l1.715,0.248L-536.953,771.787z M-541.688,791.861l-1.911,8.102
		l18.134,0.952l4.672-6.09L-541.688,791.861z M-551.118,831.812l1.344,0.784l24.309-31.682l-18.134-0.952L-551.118,831.812z
		 M-551.118,831.812l-0.868,3.675l2.212-2.891L-551.118,831.812z M-520.793,794.825l-4.672,6.09l8.42,0.446l4.149-5.413
		L-520.793,794.825z M-525.465,800.915l-24.309,31.682l2.719,1.587l6.051-1.603l23.959-31.22L-525.465,800.915z M-551.986,835.487
		l4.931-1.304l-2.719-1.587L-551.986,835.487z M-541.688,791.861l-1.715-0.248l-1.951,8.256l1.755,0.094L-541.688,791.861z
		 M-545.354,799.869l-7.325,31.037l1.56,0.906l7.52-31.85L-545.354,799.869z M-552.678,830.906l-0.518,2.191l1.21,2.39l0.868-3.675
		L-552.678,830.906z M-543.719,836.124l2.715-3.543l-6.051,1.603L-543.719,836.124z M-547.055,834.184l-4.931,1.304l-1.21-2.39
		l-5.24,22.217l14.717-19.19L-547.055,834.184z M118.847,656.886l-0.323-1.122l-1.767,1.328L118.847,656.886z M171.401,628.152
		l-11.253-3.681l-41.625,31.292l0.323,1.122l8.143-0.824l42.364-11.196L171.401,628.152z M171.401,628.152l-2.048,16.713
		l2.847-0.755l12.789-11.52L171.401,628.152z M116.757,657.092l-3.434,2.59l13.667-3.62l-8.143,0.824L116.757,657.092z
		 M294.865,547.577l2.747-2.477l-1.449,0.249L294.865,547.577z M184.99,632.591l-12.789,11.52l21.995-5.812l2.202-1.981
		L184.99,632.591z M126.99,656.062l35.959-3.61l6.157-5.553l0.248-2.033L126.99,656.062z M169.106,646.898l3.095-2.788l-2.847,0.755
		L169.106,646.898z"/>
	<path opacity="0.1522" clip-path="url(#SVGID_2_)" fill="none" stroke="#00AFC0" stroke-miterlimit="10" d="M-145.62,928.981
		l-5.359,6.564l6.126,4.432l1.502-1.843L-145.62,928.981z M-417.284,818.012l5.586,3.956l14.156-9.171L-417.284,818.012z
		 M-302.583,825.854l-93.876-13.35l-1.083,0.292l-14.156,9.171l198.919,140.946l32.815-48.344L-302.583,825.854z M-212.778,962.914
		l24.973,17.695l36.826-45.063l-28.984-20.976L-212.778,962.914z M-442.365,824.642l12.681,8.985l17.986-11.659l-5.586-3.956
		L-442.365,824.642z M-411.698,821.968l-17.986,11.659l205.724,145.766l11.182-16.479L-411.698,821.968z M-187.805,980.609
		l-24.973-17.695l-11.182,16.479l29.705,21.043l49.402-60.458l-6.126-4.432L-187.805,980.609z M92.128-18.749L41.921-57.777
		l-3.949,21.771L78.813-4.252L92.128-18.749z M141.062-71.978l-2.93-22.334l-86.619-16.253l-9.592,52.788l50.207,39.028
		L141.062-71.978z M41.921-57.777l9.592-52.788l-2.763-0.516L35.471-37.95l2.501,1.945L41.921-57.777z M135.294-115.877
		l-80.087-15.03l-3.694,20.343l86.619,16.253L135.294-115.877z M55.207-130.907l80.087,15.03l-11.616-88.512L73.55-231.904
		L55.207-130.907z M55.207-130.907L73.55-231.904l-2.591-1.422L48.75-111.08l2.763,0.516L55.207-130.907z M73.55-231.904
		l50.127,27.515l-3.31-25.183l-42.953-23.581L73.55-231.904z M80.777-271.644l-3.362,18.491l42.953,23.581l-5.602-42.7
		l-12.801-18.511L80.777-271.644z M77.415-253.153l3.362-18.491l-3.411,3.076l-6.408,35.242l2.591,1.422L77.415-253.153z
		 M686.111-124.894l13.046,20.143l105.818-129.482l-37.429-30.634L686.111-124.894z M703.457-98.094l107.358-131.362l-5.84-4.777
		L699.157-104.751L703.457-98.094z M-534.087,759.652l-2.865,12.135l24.99,3.547L-534.087,759.652z M-511.963,775.334l-24.99-3.547
		l-4.736,20.075l20.896,2.963l12.792-16.68L-511.963,775.334z"/>
	<path opacity="0.1522" clip-path="url(#SVGID_2_)" fill="none" stroke="#00AFC0" stroke-miterlimit="10" d="M-285.854,813.456
		l-36.504-1.909l19.775,14.307l42.139,5.99L-285.854,813.456z M-345.417,799.021l7.151,1.016l-2.946-2.127L-345.417,799.021z
		 M-345.417,799.021l-35.762,9.441l58.82,3.084l-15.907-11.51L-345.417,799.021z M-381.178,808.463l-15.281,4.041l93.876,13.35
		l-19.775-14.307L-381.178,808.463z M-154.583,846.899l5.493,22.179l13.253-19.515L-154.583,846.899z M-149.09,869.078
		l11.428,46.144l11.679-64.258l-9.854-1.4L-149.09,869.078z M-166.363,845.217l8.949,36.139l8.324-12.277l-5.493-22.179
		L-166.363,845.217z M-149.09,869.078l-8.324,12.277l7.559,30.499l11.317,8.194l0.875-4.827L-149.09,869.078z M-138.538,920.049
		l-11.317-8.194l4.235,17.127l7.026-8.584L-138.538,920.049z M-145.62,928.981l2.27,9.152l1.967-2.408l2.79-15.328L-145.62,928.981z
		 M-125.983,850.964l-11.679,64.258l0.769,3.086l1.967-2.415l11.721-64.537L-125.983,850.964z M-134.927,915.893l48.466-59.309
		l-36.745-5.229L-134.927,915.893z M-137.663,915.222l-0.875,4.827l0.142,0.103l1.502-1.844L-137.663,915.222z M-138.594,920.397
		l0.197-0.246l-0.142-0.103L-138.594,920.397z M-136.01,921.876l1.083-5.983l-1.967,2.415L-136.01,921.876z M-86.461,856.584
		l-48.466,59.309l-1.083,5.983l22.541-20.307l35.744-43.742L-86.461,856.584z M-138.396,920.151l2.387,1.725l-0.884-3.568
		L-138.396,920.151z M-138.396,920.151l-0.197,0.246l-2.79,15.328l27.915-34.156l-22.541,20.307L-138.396,920.151z
		 M-166.363,845.217l-94.081-13.373l91.631,66.298l11.399-16.786L-166.363,845.217z M-168.813,898.142l18.958,13.713l-7.559-30.499
		L-168.813,898.142z M-302.583,825.854l122.62,88.717l11.15-16.429l-91.631-66.298L-302.583,825.854z M-168.813,898.142
		l-11.15,16.429l28.984,20.975l5.359-6.563l-4.235-17.127L-168.813,898.142z"/>
	<path opacity="0.1522" clip-path="url(#SVGID_2_)" fill="none" stroke="#00AFC0" stroke-miterlimit="10" d="M-172.764,819.381
		l1.076,4.339l11.781,1.67l-1.338-5.402L-172.764,819.381z M-154.583,846.899l18.746,2.664L-123,830.641l-36.907-5.251
		L-154.583,846.899z M-123,830.641l-12.837,18.923l9.854,1.4l3.673-20.225L-123,830.641z M-159.907,825.39l-11.781-1.67
		l5.324,21.497l11.78,1.683L-159.907,825.39z M-120.746,822.103l2.825,0.149l3.252-17.906l-2.46-2.144L-120.746,822.103z
		 M-120.746,822.103l-1.29,7.134l3.887-5.741l0.228-1.243L-120.746,822.103z M-122.035,829.236l-0.275,1.503l2.777,0.397
		l1.385-7.642L-122.035,829.236z M-117.92,822.252l0.597,0.035l8.65-12.745l-5.995-5.196L-117.92,822.252z M-118.148,823.495
		l0.825-1.208l-0.597-0.035L-118.148,823.495z M-108.673,809.542l-8.65,12.745l56.48,2.949l73.422-89.838l-110.761,83.265
		L-108.673,809.542z M-118.148,823.495l-1.385,7.642l48.265,6.864l10.425-12.765l-56.48-2.949L-118.148,823.495z M-125.983,850.964
		l2.777,0.392l3.673-20.219l-2.777-0.397L-125.983,850.964z M-119.533,831.137l-3.673,20.219l36.745,5.229l15.192-18.583
		L-119.533,831.137z M12.579,735.398l-73.422,89.838l9.354,0.494l89.34-109.325L12.579,735.398z M-71.269,838.001l8.736,1.236
		l11.043-13.507l-9.354-0.494L-71.269,838.001z M-86.461,856.584l8.736,1.243l15.192-18.59l-8.736-1.236L-86.461,856.584z
		 M-188.102,757.451l-128.305,33.905l20.28,14.671l76.777,10.92l46.585,2.434L-188.102,757.451z M-219.349,816.947l47.662,6.772
		l-1.076-4.339L-219.349,816.947z M-341.211,797.91l2.946,2.127l42.139,5.99l-20.28-14.671L-341.211,797.91z M-296.126,806.027
		l10.272,7.428l66.505,3.492L-296.126,806.027z M-219.349,816.947l-66.505-3.492l25.41,18.389l94.081,13.373l-5.324-21.497
		L-219.349,816.947z M-338.265,800.037l15.907,11.51l36.504,1.908l-10.272-7.428L-338.265,800.037z"/>
	<path opacity="0.1522" clip-path="url(#SVGID_2_)" fill="none" stroke="#00AFC0" stroke-miterlimit="10" d="M-432.235,807.416
		l14.951,10.596l19.742-5.216l0.555-0.37L-432.235,807.416z M-397.542,812.796l1.083-0.292l-0.528-0.078L-397.542,812.796z
		 M-471.891,803.714l21.575,1.137l-25.002-3.553L-471.891,803.714z M-471.891,803.714l10.896,7.731l19.968-5.279l-9.289-1.315
		L-471.891,803.714z M-432.235,807.416l-8.792-1.25l-19.968,5.279l18.63,13.196l25.081-6.63L-432.235,807.416z M-429.729,310.206
		l-108.822,14.306l9.018,8.304l88.693,24.429L-429.729,310.206z M-440.84,357.245l-88.693-24.429l60.634,55.796l24.69-17.108
		L-440.84,357.245z M-468.899,388.612l16.969,15.611l7.722-32.72L-468.899,388.612z M-579.769,318.969l8.436,9.852l18.486-2.432
		L-579.769,318.969z M-552.847,326.388l23.314,6.428l-9.018-8.304L-552.847,326.388z M-529.533,332.816l-23.314-6.428l-18.486,2.432
		l70.297,82.057l32.136-22.265L-529.533,332.816z M-468.899,388.612l-32.136,22.265l37.261,43.489l11.844-50.143L-468.899,388.612z
		 M-568.129,297.281l29.578,27.231l108.822-14.306l4.459-18.896L-568.129,297.281z M-518.855,642.781l-1.359,1.104l9.983,7.224
		l4.466-18.914L-518.855,642.781z M-520.214,643.886l-15.99,12.935l21.03,15.214l4.943-20.925L-520.214,643.886z M-515.174,672.034
		l-21.03-15.214l-50.683,41.02l36.897,26.144l23.099-2.314L-515.174,672.034z M-549.99,723.983l19.325,13.694l3.774-16.009
		L-549.99,723.983z M-549.99,723.983l-30.162,3.032l44.551,31.562l4.937-20.9L-549.99,723.983z M-173.19,753.51l-4.249,1.116
		l16.193,65.361l40.5,2.115l3.617-19.9L-173.19,753.51z M-161.245,819.987l1.338,5.402l36.907,5.251l0.965-1.404l1.29-7.134
		L-161.245,819.987z M-122.311,830.739l0.275-1.503l-0.965,1.404L-122.311,830.739z M-188.102,757.451l15.338,61.931l11.519,0.605
		l-16.193-65.361L-188.102,757.451z"/>
	<path opacity="0.1522" clip-path="url(#SVGID_2_)" fill="none" stroke="#00AFC0" stroke-miterlimit="10" d="M-242.67,693.146
		l-183.956,18.461l87.504,63.309l109.128-70.753L-242.67,693.146z M-229.994,704.163l-109.128,70.753l4.374,3.168l142.44-37.642
		l-1.123-4.526L-229.994,704.163z M-449.994,713.954l23.368-2.347l-13.865-10.034L-449.994,713.954z M-339.122,774.916
		l-87.504-63.309l-23.368,2.347l-2.588,3.371l93.028,67.312l9.186-2.426L-339.122,774.916z M-350.368,782.212l15.619-4.128
		l-4.374-3.168L-350.368,782.212z M-334.749,778.084l18.342,13.272l128.305-33.905l-4.207-17.009L-334.749,778.084z
		 M-359.554,784.638l2.571,1.859l6.615-4.285L-359.554,784.638z M-350.368,782.212l-6.615,4.285l15.771,11.413l24.805-6.554
		l-18.342-13.272L-350.368,782.212z M-452.582,717.325l-37.611,49.026l21.337,15.113l78.859,11.212l30.443-8.039L-452.582,717.325z
		 M-435.908,804.815l45.912-12.139l-78.859-11.212L-435.908,804.815z M-359.554,784.638l-30.443,8.039l19.255,2.736l13.759-8.916
		L-359.554,784.638z M-356.982,786.497l-13.759,8.916l25.325,3.608l4.205-1.111L-356.982,786.497z M-389.997,792.677l-45.912,12.139
		l1.2,0.844l44.557,2.336l19.41-12.582L-389.997,792.677z M-390.152,807.995l-44.557-2.336l2.473,1.757l35.248,5.01
		L-390.152,807.995z M-370.742,795.413l-19.41,12.582l8.974,0.468l35.762-9.441L-370.742,795.413z M-390.152,807.995l-6.835,4.431
		l0.528,0.078l15.281-4.041L-390.152,807.995z M-498.548,777.244l29.693,4.221l-21.337-15.113L-498.548,777.244z M-468.855,781.465
		l-29.693-4.221l-3.78,4.921l27.01,19.133l25.002,3.553l11.917,0.619l2.49-0.654L-468.855,781.465z M-450.316,804.851l9.289,1.315
		l2.628-0.696L-450.316,804.851z M-438.398,805.47l3.69,0.189l-1.2-0.844L-438.398,805.47z M-438.398,805.47l-2.628,0.696
		l8.792,1.25l-2.473-1.757L-438.398,805.47z"/>
	<path opacity="0.1522" clip-path="url(#SVGID_2_)" fill="none" stroke="#00AFC0" stroke-miterlimit="10" d="M-495.872,762.332
		l-10.568,13.79l7.891,1.122l8.356-10.893L-495.872,762.332z M-508.001,778.146l5.673,4.02l3.779-4.921l-7.891-1.122
		L-508.001,778.146z M-529.145,738.751l-1.52-1.073l-4.937,20.9l1.514,1.073L-529.145,738.751z M-192.308,740.442l3.129-0.83
		l-4.252-3.696L-192.308,740.442z M-177.438,754.626l4.249-1.116l-5.761-5.012L-177.438,754.626z M-178.951,748.498l-10.228-8.886
		l-3.129,0.83l4.207,17.009l10.663-2.825L-178.951,748.498z M-296.173,646.668l-61.332-53.277l-82.986,108.183l13.864,10.034
		l183.957-18.461L-296.173,646.668z"/>
	<path opacity="0.1522" clip-path="url(#SVGID_2_)" fill="none" stroke="#00AFC0" stroke-miterlimit="10" d="M-451.931,404.224
		l-11.844,50.143l1.386,1.62l11.911-50.417L-451.931,404.224z M-425.27,291.311l-4.459,18.896l1.835-0.242l4.419-18.734
		L-425.27,291.311z M-271.094,376.433l6.4-6.969l-7.122,4.052L-271.094,376.433z M-271.815,373.516l-9.965,5.673l1.734,6.992
		l8.953-9.748L-271.815,373.516z M-281.781,379.188l-25.919,14.737l16.377,4.512l11.276-12.257L-281.781,379.188z M-291.323,398.438
		l-16.377-4.512l-96.072,54.632l35.966,33.102L-291.323,398.438z M-447.464,473.399l42.083,49.134l37.575-40.874l-35.966-33.102
		L-447.464,473.399z M-381.691,572.374l-24.187-21.003l-97.694,79.043l-5.139,21.788l62.586,45.296l83.375-108.668L-381.691,572.374
		z M-513.654,673.133l55.445,40.124l12.084-15.759l-62.586-45.296L-513.654,673.133z M-446.125,697.498l5.634,4.075l82.986-108.183
		l-5.246-4.561L-446.125,697.498z M-446.125,697.498l-12.084,15.759l1.852,1.335l6.364-0.638l9.503-12.381L-446.125,697.498z
		 M-456.358,714.592l3.777,2.733l2.587-3.371L-456.358,714.592z M-505.765,632.195l-4.466,18.914l1.52,1.093l5.139-21.788
		L-505.765,632.195z M-508.711,652.202l-1.52-1.093l-4.943,20.925l1.52,1.099L-508.711,652.202z M-513.654,673.133l-11.415,48.355
		l65.591-6.59l1.268-1.642L-513.654,673.133z M-525.069,721.488l-4.076,17.263l33.273,23.581l36.394-47.434L-525.069,721.488z
		 M-459.478,714.898l3.12-0.307l-1.852-1.335L-459.478,714.898z M-459.478,714.898l-36.394,47.434l5.679,4.02l37.611-49.026
		l-3.777-2.733L-459.478,714.898z M-515.174,672.034l-11.717,49.635l1.822-0.181l11.415-48.355L-515.174,672.034z M-526.891,721.669
		l-3.773,16.009l1.52,1.073l4.076-17.263L-526.891,721.669z M-534.087,759.651l22.125,15.682l5.523,0.789l10.568-13.79
		l-33.273-23.581L-534.087,759.651z M-508,778.146l1.561-2.023l-5.523-0.789L-508,778.146z"/>
	<path opacity="0.1522" clip-path="url(#SVGID_2_)" fill="none" stroke="#00AFC0" stroke-miterlimit="10" d="M37.972-36.006
		l-2.501-1.945L19.456,50.241l3.26-2.268L37.972-36.006z M-293.536,285.794l1.553,6.297l70.902-9.327L-293.536,285.794z
		 M-197.024,295.85l-1.761-14.018l-22.296,0.932l-70.902,9.327l16.658,67.271l41.735-23.736L-197.024,295.85z M-198.785,281.832
		l1.761,14.018l13.461-14.656L-198.785,281.832z M-304.787,286.265l1.804,7.268l11-1.441l-1.553-6.297L-304.787,286.265z
		 M-291.983,292.091l-11,1.441l17.694,71.49l9.965-5.66L-291.983,292.091z M-275.325,359.362l3.509,14.153l7.122-4.052
		l31.104-33.838L-275.325,359.362z M-275.325,359.362l-9.965,5.66l3.509,14.166l9.965-5.673L-275.325,359.362z M-322.247,286.995
		l-16.153,11.193l35.417-4.655l-1.804-7.268L-322.247,286.995z M-427.894,309.964l-11.279,47.74l10.637,2.929l90.135-62.445
		L-427.894,309.964z M-338.4,298.188l-90.135,62.445l101.693,28.017l41.553-23.627l-17.694-71.49L-338.4,298.188z M-442.084,370.032
		l13.549-9.399l-10.637-2.929L-442.084,370.032z M-428.535,360.633l-13.549,9.399l-8.394,35.537l35.855,32.994l87.78-49.914
		L-428.535,360.633z M-462.389,455.985l0.732,0.849l4.883,5.701l42.151-23.972l-35.855-32.994L-462.389,455.985z M-423.474,291.23
		l-4.419,18.734l89.494-11.776l16.153-11.193L-423.474,291.23z M-285.29,365.022l-41.553,23.627l19.142,5.276l25.919-14.737
		L-285.29,365.022z M-414.623,438.563l10.85,9.994l96.072-54.632l-19.142-5.276L-414.623,438.563z M-414.623,438.563l-42.151,23.972
		l9.31,10.864l43.691-24.842L-414.623,438.563z M-440.84,357.245l1.667,0.459l11.279-47.74l-1.835,0.242L-440.84,357.245z
		 M-440.84,357.245l-3.37,14.259l2.125-1.472l2.912-12.328L-440.84,357.245z M-451.931,404.224l1.453,1.346l8.394-35.537
		l-2.125,1.472L-451.931,404.224z"/>
	<path opacity="0.1522" clip-path="url(#SVGID_2_)" fill="none" stroke="#00AFC0" stroke-miterlimit="10" d="M-462.652,457.122
		l-1.897,0.547l-2.536,10.732l2.044-1.161L-462.652,457.122z M-467.084,468.401l-4.412,18.666l2.051-1.168l4.405-18.659
		L-467.084,468.401z M-405.381,522.533l-42.083-49.134l-21.981,12.5l-17.602,74.539l56.264,11.079l24.905-20.146l-14.456-12.562
		L-405.381,522.533z M-469.445,485.899l-2.051,1.168l-17.245,73.036l1.694,0.335L-469.445,485.899z M-467.084,468.401
		l-125.375,71.286l21.111,4.158l99.853-56.778L-467.084,468.401z M-571.349,543.846l82.608,16.258l17.245-73.036L-571.349,543.846z
		 M-458.233,584.688l-2.222-2.238l0.355-0.387l2.502-2.724L-458.233,584.688z M-503.572,630.414l72.789-58.896l-56.264-11.079
		L-503.572,630.414z M-488.741,560.104l-17.023,72.092l2.192-1.781l16.525-69.976L-488.741,560.104z M-522.896,641.944l2.682,1.941
		l1.358-1.104L-522.896,641.944z M-522.896,641.944l-47.453-9.829l34.145,24.705l15.99-12.935L-522.896,641.944z M88.703-309.938
		l-0.971-0.029l-3.915,21.573l12.182-11.001L88.703-309.938z M95.999-299.396l-12.182,11.001l-3.039,16.751l21.188-19.14
		L95.999-299.396z M83.817-288.395l3.915-21.573l-2.833-0.068l-7.532,41.467l3.411-3.075L83.817-288.395z M87.931-311.048
		l-0.199,1.081l0.971,0.029L87.931-311.048z M87.931-311.048l-2.26-3.274l-0.772,4.287l2.833,0.068L87.931-311.048z M23.905,55.479
		l-2.141-2.263l-1.04,5.716L23.905,55.479z M32.54,46.094l-3.689-2.371l-6.135,4.25l-0.951,5.244l2.141,2.263L32.54,46.094z
		 M28.851,43.723l3.689,2.371L44.998,32.53L28.851,43.723z M44.998,32.53L78.813-4.252L37.972-36.005L22.716,47.973L44.998,32.53z
		 M21.765,53.217l-2.397-2.528l-2.199,12.122l3.556-3.877L21.765,53.217z M21.765,53.217l0.951-5.244l-3.26,2.268l-0.089,0.447
		L21.765,53.217z"/>
	<path opacity="0.1522" clip-path="url(#SVGID_2_)" fill="none" stroke="#00AFC0" stroke-miterlimit="10" d="M-152.082,653.652
		l3.774,30.027l28.733-2.883l-6.797-43.812L-152.082,653.652z M-193.876,688.251l12.231,49.367l68.094-17.99l-6.024-38.831
		l-28.733,2.883L-193.876,688.251z M-218.812,633.439l13.545,54.7l9.791-6.349l-12.434-50.218L-218.812,633.439z M-205.267,688.14
		l0.303,1.227l11.088-1.115l-1.6-6.46L-205.267,688.14z M-193.876,688.251l-11.088,1.115l11.533,46.55l4.252,3.696l7.534-1.994
		L-193.876,688.251z M-113.551,719.628l-68.094,17.99l2.694,10.88l5.761,5.012l62.338-16.476L-113.551,719.628z M-189.179,739.612
		l10.228,8.886l-2.694-10.88L-189.179,739.612z M-205.267,688.14l-13.545-54.7l-77.361,13.229l53.503,46.479l35.11-3.52
		L-205.267,688.14z M-207.56,689.627l2.596-0.261l-0.303-1.227L-207.56,689.627z M-242.67,693.146l12.676,11.017l22.434-14.536
		L-242.67,693.146z M-229.994,704.163l36.562,31.753l-11.533-46.55l-2.596,0.261L-229.994,704.163z M-173.19,753.51l56.062,48.692
		l8.841-48.662l-2.564-16.506L-173.19,753.51z M-117.128,802.202l2.46,2.144l7.69-42.325l-1.31-8.48L-117.128,802.202z
		 M-106.978,762.021l-7.69,42.325l5.995,5.196l7.384-10.885L-106.978,762.021z M-108.673,809.542l10.492,9.122l-3.107-20.007
		L-108.673,809.542z M587.803,414.02l3.149,1.899l-3.47-4.996L587.803,414.02z M587.482,410.923l3.47,4.996l6.268-119.975
		l-19.762,14.857L587.482,410.923z M588.035,416.386l2.917-0.467l-3.149-1.899L588.035,416.386z M-462.389,455.986l-0.263,1.136
		l0.995-0.288L-462.389,455.986z M-462.389,455.986l-1.386-1.62l-0.774,3.303l1.897-0.547L-462.389,455.986z M-462.652,457.122
		l-2.388,10.118l8.267-4.705l-4.884-5.701L-462.652,457.122z M-465.04,467.24l-4.406,18.659l21.981-12.5l-9.309-10.864
		L-465.04,467.24z"/>
	<path opacity="0.1522" clip-path="url(#SVGID_2_)" fill="none" stroke="#00AFC0" stroke-miterlimit="10" d="M104.067,606.153
		l3.714,12.755l7.446-9.107L104.067,606.153z M-58.558,674.676l-9.031,32.802l34.329-9.067l19.128-28.188L-58.558,674.676z
		 M-33.26,698.41l97.023-25.632l9.235-11.295l-87.13,8.738L-33.26,698.41z M-67.589,707.478l-5.374,19.547l24.718-6.537
		l14.985-22.077L-67.589,707.478z M-33.26,698.41l-14.985,22.077l93.125-24.604l18.884-23.105L-33.26,698.41z M107.781,618.908
		l-34.783,42.575l10.607-1.062l26.738-32.73L107.781,618.908z M107.781,618.908l2.562,8.783l12.576-15.375l-7.692-2.516
		L107.781,618.908z M63.763,672.778l12.428-3.286l7.415-9.07l-10.607,1.062L63.763,672.778z M44.879,695.884l12.428-3.285
		l18.884-23.106l-12.428,3.286L44.879,695.884z M-86.802,777.313l38.557-56.826l-24.718,6.537L-86.802,777.313z M-48.245,720.487
		l-38.557,56.826l-11.379,41.351l110.761-83.266l32.3-39.515L-48.245,720.487z M44.879,695.884l-32.3,39.515l25.271-18.993
		l19.457-23.807L44.879,695.884z M83.605,660.422l33.151-3.33l1.767-1.328l-8.18-28.072L83.605,660.422z M110.344,627.691
		l8.18,28.072l41.625-31.292l-37.229-12.155L110.344,627.691z M83.605,660.422l-7.415,9.07l37.132-9.812l3.434-2.589L83.605,660.422
		z M57.307,692.599l18.841-4.982l37.175-27.936l-37.132,9.812L57.307,692.599z M37.851,716.405l38.298-28.789l-18.841,4.982
		L37.851,716.405z M-205.393,631.144l36.383,33.488l16.928-10.979l-3.888-30.959L-205.393,631.144z M-148.308,683.68l-3.774-30.027
		l-16.928,10.979L-148.308,683.68z M-207.91,631.573l12.434,50.218l26.466-17.159l-36.383-33.488L-207.91,631.573z M-169.01,664.632
		l-26.466,17.159l1.6,6.46l45.568-4.571L-169.01,664.632z M-155.97,622.693l3.888,30.959l25.71-16.667l-2.929-18.856
		L-155.97,622.693z"/>
	<path opacity="0.1522" clip-path="url(#SVGID_2_)" fill="none" stroke="#00AFC0" stroke-miterlimit="10" d="M-102.01,734.694
		l-4.968,27.326l5.689,36.637l14.487-21.344l13.839-50.289L-102.01,734.694z M-98.182,818.663l11.379-41.35l-14.487,21.344
		L-98.182,818.663z M589.085,41.871l22.874-27.998l0.432-8.289l-1.262-1.611L589.085,41.871z M612.391,5.584l0.222-4.154
		l-1.483,2.542L612.391,5.584z M556.194,98.416l9.027,90.187l38.934-25.237l0.489-9.472l-42.517-65.677L556.194,98.416z
		 M562.128,88.216l42.517,65.677l7.314-140.021l-22.874,27.998L562.128,88.216z M574.53,281.549l24.599-22.184l5.026-96
		l-38.934,25.237L574.53,281.549z M574.53,281.549l1.283,12.85l22.548-20.325l0.768-14.709L574.53,281.549z M575.813,294.399
		l1.645,16.403l19.762-14.857l1.142-21.87L575.813,294.399z M615.491,9.553l-3.101-3.968l-0.432,8.289L615.491,9.553z M613.184,0.45
		l8.765-10.729l-1.45-1.852L613.184,0.45z M621.948-10.28l77.209-94.472l-13.046-20.142L620.498-12.131L621.948-10.28z
		 M612.612,1.431l-0.222,4.154l3.101,3.968l11.222-13.735l-4.765-6.098L613.184,0.45L612.612,1.431z M621.948-10.28l4.765,6.098
		l76.744-93.913l-4.3-6.657L621.948-10.28z M608.817,160.336l-4.173-6.443l-0.489,9.472L608.817,160.336z M611.959,13.873
		l-7.314,140.021l4.173,6.443l-4.662,3.029l-5.026,96l124.166-111.896L615.491,9.553L611.959,13.873z M598.361,274.074
		l131.354-118.39l-6.421-8.215L599.129,259.365L598.361,274.074z M723.295,147.469l12.878-11.612L626.713-4.182L615.491,9.553
		L723.295,147.469z M736.173,135.857l-12.878,11.612l6.421,8.215l-131.354,118.39l-1.142,21.87l243.062-182.715L703.457-98.095
		L626.713-4.182L736.173,135.857z M-58.558,674.676l44.426-4.454l55.128-81.226l-79.735,13.642L-58.558,674.676z M47.924,587.813
		l-6.928,1.183l-55.128,81.226l87.13-8.739l34.783-42.574l-3.714-12.756L47.924,587.813z"/>
	<path opacity="0.1522" clip-path="url(#SVGID_2_)" fill="none" stroke="#00AFC0" stroke-miterlimit="10" d="M115.228,609.801
		l7.692,2.516l35.458-43.398l-11.327,1.939L115.228,609.801z M179.062,565.383l-20.685,3.535l-35.458,43.398l37.229,12.155
		l12.875-9.68L179.062,565.383z M179.062,565.383l-6.038,49.409l28.351-21.302l-17.827-28.877L179.062,565.383z M160.148,624.472
		l11.253,3.681l1.623-13.36L160.148,624.472z M173.024,614.792l-1.623,13.36l13.588,4.438l26.034-23.462l-9.649-15.639
		L173.024,614.792z M196.398,636.317l20.181-18.19l-5.555-8.998l-26.034,23.462L196.398,636.317z M196.398,636.317l2.378,0.771
		l25.374-6.7l-7.572-12.262L196.398,636.317z M198.776,637.089l27.542,9.001l7.094-0.705l-9.262-14.996L198.776,637.089z
		 M233.413,645.385l-7.094,0.705l3.121,1.021l4.331-1.146L233.413,645.385z M229.439,647.11l6.312,2.061l-1.981-3.207
		L229.439,647.11z M-126.372,636.985l40.559-26.293l-43.488,7.437L-126.372,636.985z M-126.372,636.985l6.797,43.812l24.952-2.5
		l12.39-68.222l-3.58,0.617L-126.372,636.985z M-119.575,680.797l6.024,38.831l12.002-3.176l6.926-38.155L-119.575,680.797z
		 M-110.852,737.033l5.844-1.543l3.459-19.038l-12.002,3.176L-110.852,737.033z M-82.232,610.075l-12.39,68.222l2.908-0.292
		l12.431-68.427L-82.232,610.075z M-101.548,716.452l2.997-0.789l6.836-37.658l-2.908,0.292L-101.548,716.452z M-79.284,609.578
		l-12.431,68.427l33.157-3.329l19.819-72.038L-79.284,609.578z M-91.715,678.005l-6.836,37.658l30.962-8.186l9.031-32.802
		L-91.715,678.005z M-101.548,716.452l-3.459,19.038l2.998-0.796l3.459-19.031L-101.548,716.452z M-102.01,734.694l29.047-7.67
		l5.374-19.547l-30.962,8.186L-102.01,734.694z M-108.288,753.54l3.28-18.05l-5.844,1.543L-108.288,753.54z M-108.288,753.54
		l1.31,8.48l4.968-27.326l-2.998,0.796L-108.288,753.54z"/>
	<path opacity="0.1522" clip-path="url(#SVGID_2_)" fill="none" stroke="#00AFC0" stroke-miterlimit="10" d="M521.703-378.846
		l6.973-32.658l-14.585,20.9L521.703-378.846z M528.676-411.504l3.2-4.581l7.564-35.446l-1.886-1.547L528.676-411.504z
		 M521.703-378.846l1.668,2.579l8.505-39.817l-3.2,4.581L521.703-378.846z M550.377-442.589l-10.937-8.942l-7.564,35.446
		L550.377-442.589z M531.876-416.085l-8.505,39.817l100.845,155.777l8.112-155.035l-81.951-67.063L531.876-416.085z
		 M537.555-453.079l4.56-21.38l-47.182-38.608l2.73,27.354L537.555-453.079z M537.555-453.079l1.886,1.547l4.564-21.374
		l-1.891-1.554L537.555-453.079z M539.44-451.531l10.937,8.942l11.154-15.98l-17.526-14.336L539.44-451.531z M632.328-375.525
		l1.262-24.075l-72.059-58.969l-11.154,15.98L632.328-375.525z M561.531-458.569L633.59-399.6l4.909-93.907l-35.66-24.233
		L561.531-458.569z M226.009,574.967l2.424,18.467l49.993-45.047l-22.066,3.773L226.009,574.967z M278.426,548.387l-49.993,45.047
		l1.644,12.531l64.788-58.388l1.297-2.227L278.426,548.387z M230.077,605.965l2.897,22.084l17.802-4.7l44.089-75.771
		L230.077,605.965z M235.234,645.198l2.334-0.239l0.751-0.199l12.457-21.411l-17.802,4.7L235.234,645.198z M235.278,645.567
		l2.291-0.608l-2.334,0.239L235.278,645.567z M237.568,644.959l0.674-0.063l0.077-0.136L237.568,644.959z M235.278,645.567
		l0.473,3.604l2.491-4.276l-0.674,0.063L235.278,645.567z M686.111-124.894l81.436-139.974L632.328-375.525l-8.112,155.035
		L686.111-124.894z M632.328-375.525l135.219,110.658l9.901-17.005L633.59-399.6L632.328-375.525z M777.448-281.873l48.86-83.997
		l-187.81-127.638L633.59-399.6L777.448-281.873z M47.924,587.814l56.143,18.339l-7.757-26.62L47.924,587.814z M104.067,606.153
		l11.16,3.647l31.823-38.943l-50.741,8.676L104.067,606.153z"/>
	<path opacity="0.1522" clip-path="url(#SVGID_2_)" fill="none" stroke="#00AFC0" stroke-miterlimit="10" d="M232.974,628.05
		l-8.823,2.338l9.262,14.997l1.822-0.187L232.974,628.05z M233.413,645.385l0.357,0.579l1.508-0.397l-0.043-0.368L233.413,645.385z
		 M233.77,645.964l1.981,3.207l-0.473-3.604L233.77,645.964z M553.675,73.278l23.504-28.766l-27.923-15.328L553.675,73.278z
		 M554.734,83.905l2.571-3.14l-3.408-5.258L554.734,83.905z M553.897,75.507l3.408,5.258l26.604-32.558l-6.731-3.695l-23.504,28.766
		L553.897,75.507z M514.091-390.604l-8.157-12.602l2.127,21.229L514.091-390.604z M508.061-381.977l4.573,45.605l9.069-42.476
		l-7.612-11.757L508.061-381.977z M577.179,44.512l13.188-16.138L546.778,4.458l2.478,24.726L577.179,44.512z M590.366,28.374
		l20.361-24.919l-73.472-93.985l9.522,94.988L590.366,28.374z M577.179,44.512l6.731,3.695l5.175-6.336l22.044-37.898l-0.401-0.518
		L577.179,44.512z M512.634-336.371l0.711,7.087l10.025-46.984l-1.667-2.579L512.634-336.371z M537.256-90.531l73.472,93.985
		l1.902-2.323l1.142-21.87l-79.74-102.017L537.256-90.531z M534.031-122.755l79.74,102.017l10.444-199.753L523.37-376.268
		l-10.025,46.984L534.031-122.755z M610.728,3.455l0.401,0.518l1.483-2.542l0.018-0.299L610.728,3.455z M554.734,83.905l1.46,14.511
		l5.934-10.2l-4.822-7.452L554.734,83.905z M557.306,80.765l4.822,7.452l26.957-46.345L557.306,80.765z M613.184,0.45l7.314-12.582
		l-6.727-8.606l-1.142,21.87L613.184,0.45z M613.771-20.738l6.727,8.606l65.613-112.762l-61.896-95.597L613.771-20.738z
		 M612.612,1.431l0.571-0.981l-0.554,0.682L612.612,1.431z M256.36,552.159l-32.617,5.582l2.266,17.225L256.36,552.159z
		 M499.992-462.498l5.941,59.292l8.157,12.602l14.585-20.9l8.879-41.575l-39.892-32.634L499.992-462.498z"/>
	<path opacity="0.1522" clip-path="url(#SVGID_2_)" fill="none" stroke="#00AFC0" stroke-miterlimit="10" d="M469.979-458.721
		l30.014-3.777l-2.329-23.215l-58.198-47.632l-3.087,22.722L469.979-458.721z M201.375,593.491l24.634-18.525l-2.266-17.223
		l-40.195,6.871L201.375,593.491z M201.375,593.491l9.649,15.639l17.409-15.697l-2.424-18.467L201.375,593.491z M211.024,609.13
		l5.554,8.997l13.499-12.161l-1.644-12.533L211.024,609.13z M224.151,630.389l8.823-2.339l-2.897-22.084l-13.499,12.161
		L224.151,630.389z"/>
	<path opacity="0.1522" clip-path="url(#SVGID_2_)" fill="none" stroke="#00AFC0" stroke-miterlimit="10" d="M251.292-439.569
		l-0.789-9.039l-3.571,12.977L251.292-439.569z M250.502-448.608l0.789,9.039l7.721-6.965l-6.714-8.594L250.502-448.608z
		 M245.515-430.477l6.492-0.815l-0.715-8.277l-4.36,3.938L245.515-430.477z M252.007-431.292l6.536-0.827l6.885-6.206l-6.416-8.209
		l-7.721,6.965L252.007-431.292z M259.012-446.534l12.872-11.618l-13.873-17.738l-5.713,20.762L259.012-446.534z M271.884-458.152
		l29.693-26.807l-41.258,0.682l-2.308,8.387L271.884-458.152z M259.012-446.534l6.416,8.209l12.866-11.618l-6.409-8.208
		L259.012-446.534z M278.293-449.943l39.078-35.27l-15.794,0.254l-29.693,26.807L278.293-449.943z M362.024-525.527l-5.618-8.931
		l-54.829,49.499l15.794-0.254L362.024-525.527z M362.024-525.527l6.79-6.133l-2.276-11.945l-10.132,9.147L362.024-525.527z
		 M269.229-433.459l-3.802-4.866l-6.885,6.206L269.229-433.459z M269.229-433.459l19.982-2.519l-10.918-13.965l-12.866,11.618
		L269.229-433.459z M317.371-485.213l-39.078,35.27l10.918,13.965l95.583-12.025l-7.3-38.205L317.371-485.213z M317.371-485.213
		l60.124-0.995l-4.028-21.125l-11.442-18.194L317.371-485.213z M373.467-507.333l-4.652-24.327l-6.79,6.133L373.467-507.333z
		 M384.795-448.003l10-1.259l-6.62-34.677l-1.526-2.42l-9.153,0.152L384.795-448.003z M388.175-483.94l-0.468-2.439l-1.059,0.019
		L388.175-483.94z M386.648-486.36l-13.182-20.974l4.028,21.125L386.648-486.36z M373.467-507.333l13.182,20.974l1.059-0.019
		l-10.152-53.17l-8.74,7.888L373.467-507.333z M408.872-451.03l-20.697-32.91l6.62,34.677L408.872-451.03z M408.872-451.03
		l9.682-1.221l14.643-34.886l-45.489,0.758l0.468,2.439L408.872-451.03z M418.554-452.251l51.425-6.47l-33.601-51.902l-3.182,23.486
		L418.554-452.251z"/>
	<path opacity="0.1522" clip-path="url(#SVGID_2_)" fill="none" stroke="#00AFC0" stroke-miterlimit="10" d="M27.964-454.675
		l26.599-26.182L5.99-480.059l-6.285,4.31L27.964-454.675z M37.427-447.604l50.384-29.986l-0.5-3.817l-32.748,0.551l-26.599,26.182
		L37.427-447.604z M96.458-411.725l-8.648-65.865l-50.384,29.986l49.681,37.056L96.458-411.725z M54.563-480.856l29.064-28.613
		l-2.858-21.784L5.99-480.059L54.563-480.856z M83.627-509.47l-29.064,28.613l32.748-0.551L83.627-509.47z M37.427-447.604
		l-9.462-7.071L-0.295-475.75l-17.462,11.956l42.279,61.11l62.586-7.864L37.427-447.604z M5.99-480.059l-11.794,0.193l5.509,4.117
		L5.99-480.059z M-0.295-475.75l-5.509-4.117l-47.664-35.543l35.711,51.615L-0.295-475.75z M106.447-412.984l134.086-16.869
		l6.398-5.778l3.571-12.977l-0.861-9.919l-19.734-25.245l-110.94,1.847L106.447-412.984z M252.298-455.128l-2.657-3.4l0.861,9.919
		L252.298-455.128z M118.968-481.927l110.94-1.847l-41.82-53.511l-66.232,39.427L118.968-481.927z M246.931-435.632l-6.398,5.778
		l4.981-0.624L246.931-435.632z M103.519-412.611l2.928-0.373l12.521-68.942l-2.873,0.043L103.519-412.611z M116.095-481.883
		l2.873-0.043l2.888-15.931l-3.198,1.908L116.095-481.883z M247.428-484.066l-17.52,0.292l19.734,25.245L247.428-484.066z
		 M249.642-458.528l2.657,3.4l5.713-20.762l-6.434-8.24l-4.149,0.065L249.642-458.528z M188.088-537.284l41.82,53.511l17.52-0.292
		l-0.529-6.049l-43.824-56.082L188.088-537.284z M251.577-484.131l-4.679-5.984l0.529,6.049L251.577-484.131z M258.011-475.891
		l2.308-8.387l-8.742,0.146L258.011-475.891z M87.311-481.407l0.5,3.817l6.603-3.937L87.311-481.407z M87.811-477.59l8.648,65.865
		l7.061-0.887l12.576-69.272l-21.682,0.357L87.811-477.59z M116.095-481.883l2.562-14.066l-24.245,14.423L116.095-481.883z"/>
	<path opacity="0.1522" clip-path="url(#SVGID_2_)" fill="none" stroke="#00AFC0" stroke-miterlimit="10" d="M548.192,354.146
		l-3.561-18.674l-6.153,4.63L548.192,354.146z M548.192,354.146l39.29,56.777l-10.024-100.121l-32.826,24.67L548.192,354.146z
		 M395.863,447.3l12.512-2.013l45.417-40.918l-0.059-0.568L395.863,447.3z M453.792,404.369l4.082-3.681l-4.141,3.112
		L453.792,404.369z M457.102,437.449l-3.31-33.08l-45.417,40.918L457.102,437.449z M505.873,364.602l-47.999,36.087l-4.082,3.681
		l3.31,33.08l93.881-15.103l-6.585-34.51L505.873,364.602z M550.982,422.347l9.932-1.598l-4.948-25.935l-11.568-6.978
		L550.982,422.347z M555.966,394.814l4.948,25.935l27.121-4.363l-0.232-2.366L555.966,394.814z M-458.232,584.688l0.635-5.35
		l-2.502,2.724L-458.232,584.688z M-460.455,582.449l2.222,2.239l-1.867-2.626L-460.455,582.449z M320.05,504.286l-8.053,13.847
		l22.472-20.258l1.126-5.278L320.05,504.286z M296.163,545.35l1.449-0.249l33.154-29.882l3.703-17.344l-22.472,20.258
		L296.163,545.35z M297.612,545.101l27.789-4.75l5.365-25.132L297.612,545.101z M335.595,492.597l-1.126,5.278l2.753-2.476
		l1.018-4.789L335.595,492.597z M334.469,497.875l-3.703,17.344l2.753-2.47l3.703-17.35L334.469,497.875z M337.222,495.399
		l26.883-24.227l-25.865,19.438L337.222,495.399z M364.104,471.173l-26.883,24.227l-3.703,17.35l74.856-67.462l-12.512,2.013
		L364.104,471.173z M325.4,540.351l2.305-0.396l5.813-27.205l-2.753,2.47L325.4,540.351z M408.375,445.287l-74.856,67.462
		l-5.813,27.205l137.311-23.482l-7.914-79.022L408.375,445.287z M465.016,516.472l100.644-17.217l-14.677-76.908l-93.881,15.103
		L465.016,516.472z M550.982,422.347l14.677,76.908l9.922-1.696l-14.667-76.81L550.982,422.347z M575.581,497.559l20.235-3.462
		l-7.781-77.711l-27.121,4.363L575.581,497.559z"/>
	<path opacity="0.1522" clip-path="url(#SVGID_2_)" fill="none" stroke="#00AFC0" stroke-miterlimit="10" d="M-316.656,528.738
		l5.131,4.721l38.695-50.441l-6.999-2.285L-316.656,528.738z M-316.656,528.738l-29.032,37.845l9.981-1.603l24.182-31.521
		L-316.656,528.738z M-169.265,516.851l-72.958-23.837l13.558,54.744l62.025-9.976L-169.265,516.851z M-169.265,516.851
		l2.625,20.932l24.267-3.901l-1.343-8.682L-169.265,516.851z M-254.597,488.977l14.995,60.541l10.937-1.76l-13.558-54.744
		L-254.597,488.977z M-254.597,488.977l-18.233-5.959l-38.695,50.441l25.557,23.521l46.366-7.462L-254.597,488.977z
		 M-335.707,564.98l49.739-8.001l-25.557-23.521L-335.707,564.98z M-354.719,586.495l1.945-2.559l-2.399-2.81L-354.719,586.495z
		 M-352.42,584.329l-0.354-0.393l-1.945,2.559L-352.42,584.329z M-362.75,588.829l17.062-22.246l-36.003,5.791L-362.75,588.829z
		 M-352.42,584.329l-2.299,2.166l-0.454-5.368l2.399,2.81L-352.42,584.329z M-345.688,566.583l-17.062,22.246l5.246,4.562
		l21.798-28.41L-345.688,566.583z M-228.665,547.758l19.87,80.253l3.402,3.133l49.422-8.45l-10.67-84.911L-228.665,547.758z
		 M-207.91,631.573l2.518-0.43l-3.402-3.133L-207.91,631.573z M-155.97,622.693l26.67-4.564l-13.073-84.248l-24.267,3.901
		L-155.97,622.693z M-228.665,547.758l-10.937,1.76l16.082,64.941l14.725,13.552L-228.665,547.758z M-208.795,628.011
		l-14.725-13.552l4.708,18.98l10.902-1.866L-208.795,628.011z M-285.968,556.979l62.448,57.479l-16.082-64.941L-285.968,556.979z
		 M-223.52,614.459l-62.448-57.479l-49.739,8.001l-21.798,28.41l61.332,53.277l77.361-13.229L-223.52,614.459z M544.396,387.837
		l-8.714-45.64l-29.81,22.404L544.396,387.837z M538.479,340.102l-2.796,2.096l8.714,45.64l11.569,6.978l-7.773-40.669
		L538.479,340.102z M555.966,394.814l31.836,19.205l-0.319-3.097l-39.29-56.777L555.966,394.814z"/>
	<path opacity="0.1522" clip-path="url(#SVGID_2_)" fill="none" stroke="#00AFC0" stroke-miterlimit="10" d="M533.788,332.272
		l8.732-7.863l-2.283-11.957l-8.732,7.863L533.788,332.272z M521.946,216.662l43.275-28.06l-9.027-90.187l-42.785,73.538
		L521.946,216.662z M521.946,216.662l18.291,95.79l34.293-30.903l-9.309-92.946L521.946,216.662z M540.237,312.452l2.283,11.957
		l33.293-30.01l-1.283-12.85L540.237,312.452z M534.062,333.724l4.417,6.378l6.153-4.63l-2.111-11.062l-8.732,7.863L534.062,333.724
		z M544.632,335.472l32.826-24.67l-1.645-16.403l-33.293,30.01L544.632,335.472z M428.475,317.931l-79.67,136.938l40.644-6.533
		l63.055-56.822l-6.302-62.895L428.475,317.931z M452.503,391.513l39.286-35.402l-45.588-27.492L452.503,391.513z M395.863,447.3
		l57.87-43.499l-1.23-12.288l-63.055,56.822L395.863,447.3z M491.789,356.11l-39.286,35.402l1.23,12.288l4.141-3.112l43.229-38.956
		L491.789,356.11z M457.874,400.688l47.999-36.087l-4.771-2.869L457.874,400.688z M-31.217,575.294l13.684-8.867l-10.318-3.371
		L-31.217,575.294z M-17.533,566.427l-13.684,8.867l-7.522,27.344l79.735-13.642l1.918-2.821L-17.533,566.427z M40.996,588.996
		l6.928-1.182l-5.01-1.64L40.996,588.996z M320.05,504.286l15.545-11.689l5.074-23.752L320.05,504.286z M335.595,492.597
		l2.645-1.986l5.941-27.795l-3.512,6.029L335.595,492.597z M348.805,454.868l-4.624,7.947l-5.941,27.795l25.865-19.438
		l25.344-22.838L348.805,454.868z M364.104,471.173l31.759-23.873l-6.415,1.035L364.104,471.173z M-405.381,522.533l-14.953,16.275
		l14.456,12.562l14.885-12.051L-405.381,522.533z M-346.834,458.845l-20.972,22.814l51.15,47.079l36.827-48.006L-346.834,458.845z
		 M-367.806,481.659l-37.575,40.874l14.388,16.787l-14.885,12.051l24.187,21.003l36.003-5.791l29.032-37.845L-367.806,481.659z"/>
	<path opacity="0.1522" clip-path="url(#SVGID_2_)" fill="none" stroke="#00AFC0" stroke-miterlimit="10" d="M-251.567,455.303
		l-8.598,11.2l5.569,22.474l12.375,4.036L-251.567,455.303z M-272.83,483.018l18.233,5.959l-5.569-22.474L-272.83,483.018z
		 M-181.593,281.11l-0.274-1.756l-1.695,1.84L-181.593,281.11z M-142.374,533.881l16.896-2.729l-18.239-5.953L-142.374,533.881z
		 M-125.478,531.152l-16.896,2.729l13.073,84.248l43.488-7.437l3.931-2.55l10.763-59.225L-125.478,531.152z M-85.812,610.692
		l3.58-0.617l0.351-1.933L-85.812,610.692z M-81.881,608.143l3.245-2.106l10.207-56.242l-2.688-0.876L-81.881,608.143z
		 M-81.881,608.143l-0.351,1.933l2.948-0.497l0.647-3.542L-81.881,608.143z M-68.43,549.794l-10.207,56.242l47.42-30.742
		l3.365-12.238L-68.43,549.794z M-79.284,609.578l40.545-6.94l7.522-27.344l-47.42,30.742L-79.284,609.578z M446.201,328.618
		l-3.517-35.109l-14.21,24.422L446.201,328.618z M474.407,247.49l-2.686-3.886l-5.259,9.033L474.407,247.49z M474.407,247.49
		l-7.944,5.147l-23.778,40.872l3.517,35.109l45.588,27.491l35.583-32.064L474.407,247.49z M491.789,356.109l9.313,5.623
		l32.242-29.05l-5.973-8.638L491.789,356.109z M533.345,332.683l-32.242,29.05l4.771,2.869l29.81-22.404l-1.621-8.474
		L533.345,332.683z M535.683,342.197l2.796-2.096l-4.417-6.378L535.683,342.197z M471.722,243.604l2.686,3.886l38.424-24.922
		l-7.141-37.36L471.722,243.604z M527.372,324.045l4.133-3.73l-18.674-97.747l-38.424,24.922L527.372,324.045z M533.345,332.683
		l0.443-0.41l-2.283-11.958l-4.133,3.73L533.345,332.683z M534.062,333.724l-0.273-1.451l-0.443,0.41L534.062,333.724z
		 M505.69,185.208l7.141,37.36l9.115-5.906l-8.537-44.708L505.69,185.208z M512.831,222.568l18.674,97.747l8.732-7.863
		l-18.291-95.79L512.831,222.568z"/>
	<path opacity="0.1522" clip-path="url(#SVGID_2_)" fill="none" stroke="#00AFC0" stroke-miterlimit="10" d="M174.231,549.523
		l-15.854,19.395l20.685-3.535l0.821-6.704L174.231,549.523z M179.883,558.679l-0.821,6.704l4.486-0.77L179.883,558.679z
		 M-233.589,335.626l38.791-22.061l-2.226-17.715L-233.589,335.626z M-183.563,281.194l-13.461,14.656l2.226,17.715l16.76-9.531
		l-3.555-22.924L-183.563,281.194z M-233.589,335.626l-31.105,33.838l71.788-40.819l-1.892-15.08L-233.589,335.626z
		 M-178.038,304.034l-16.76,9.531l1.892,15.08l17.174-9.76L-178.038,304.034z M-192.906,328.645l-71.788,40.819l-6.4,6.969
		l7.332,29.598l34.05,9.383l40.99-53.437L-192.906,328.645z M-253.703,446.683l23.991-31.27l-34.05-9.383L-253.703,446.683z
		 M-192.906,328.645l4.183,33.332l16.367-21.323l-3.376-21.769L-192.906,328.645z M-280.047,386.181l4.079,16.489l12.206,3.36
		l-7.332-29.598L-280.047,386.181z M-263.763,406.03l-12.206-3.36l13.667,55.213l8.598-11.2L-263.763,406.03z M-229.712,415.413
		l7.222,1.99l35.004-45.619l-1.236-9.808L-229.712,415.413z M-229.712,415.413l-23.991,31.27l2.136,8.62l29.077-37.899
		L-229.712,415.413z M-188.723,361.977l1.236,9.808l16.597-21.645l-1.466-9.486L-188.723,361.977z M-262.301,457.883l2.135,8.62
		l8.598-11.2l-2.136-8.62L-262.301,457.883z M-280.047,386.181l-11.276,12.257l15.354,4.232L-280.047,386.181z M-291.323,398.438
		l-55.512,60.407l67.006,21.888l17.528-22.85l-13.667-55.213L-291.323,398.438z M-262.301,457.883l-17.528,22.85l6.999,2.285
		l12.665-16.515L-262.301,457.883z M-180.301,429.028l-7.185-57.244l-35.004,45.619L-180.301,429.028z M-222.491,417.403
		l-29.077,37.899l9.345,37.711l72.958,23.837l-11.037-87.822L-222.491,417.403z M-187.486,371.784l7.185,57.244l22.626,6.229
		l-13.214-85.117L-187.486,371.784z M-169.265,516.851l25.548,8.349l-13.958-89.942l-22.626-6.229L-169.265,516.851z"/>
	<path opacity="0.1522" clip-path="url(#SVGID_2_)" fill="none" stroke="#00AFC0" stroke-miterlimit="10" d="M-51.752,183.456
		l-16.857-27.314l-48.648,52.923l21.604,31.617L-51.752,183.456z M-71.118,548.918l4.955-27.301l-59.314,9.535L-71.118,548.918z
		 M-66.163,521.617l-4.955,27.301l2.688,0.876l5.209-28.649L-66.163,521.617z M-68.43,549.794l40.579,13.262l13.694-49.8
		l-49.064,7.889L-68.43,549.794z M-4.321,477.514l77.102,21.241l-5.959-20.424L15.937,403.9L-4.321,477.514z M-4.321,477.514
		l-9.836,35.742l87.079-14.006l-0.141-0.495L-4.321,477.514z M66.821,478.331L30.122,352.364L15.937,403.9L66.821,478.331z
		 M73.952,499.075l6.358-1.018l-13.49-19.727l5.959,20.424L73.952,499.075z M72.78,498.755l0.141,0.495l1.031-0.175L72.78,498.755z
		 M37.025,327.267l-6.903,25.098l36.699,125.967l13.49,19.727l10.106-1.625l23.934-15.514l9.18-13.521L37.025,327.267z
		 M90.417,496.433l15.054-2.424l8.88-13.09L90.417,496.433z M114.351,480.919l12.518-8.115l-3.338-5.406L114.351,480.919z
		 M114.351,480.919l-8.88,13.09l31.368-5.05l-9.97-16.155L114.351,480.919z M72.921,499.25l-87.079,14.006l-13.694,49.8
		l10.318,3.371l92.547-60.004L72.921,499.25z M-17.533,566.427l60.447,19.748l38.71-57.042l-6.611-22.71L-17.533,566.427z
		 M81.625,529.133l-38.71,57.042l5.01,1.64l48.386-8.281L81.625,529.133z M73.952,499.075l8.691,2.395l-2.333-3.412L73.952,499.075z
		 M72.921,499.25l2.092,7.173l7.629-4.953l-8.691-2.395L72.921,499.25z M82.643,501.47l7.774-5.037l-10.106,1.625L82.643,501.47z
		 M82.643,501.47l-7.629,4.953l6.611,22.71l23.846-35.124l-15.054,2.424L82.643,501.47z M105.471,494.009l-23.846,35.124
		l14.686,50.4l50.741-8.676l22.989-28.127l-33.201-53.771L105.471,494.009z M170.04,542.73l-22.989,28.127l11.327-1.939
		l15.854-19.395L170.04,542.73z"/>
	<path opacity="0.1522" clip-path="url(#SVGID_2_)" fill="none" stroke="#00AFC0" stroke-miterlimit="10" d="M-124.597,289.809
		l21.031-11.956l-12.242,0.509L-124.597,289.809z M-103.566,277.853l-21.031,11.956l-46.292,60.331l13.214,85.117l102.083,28.129
		l23.553-129.658l-39.12-57.229L-103.566,277.853z M-157.675,435.257l13.958,89.942l18.239,5.953l59.314-9.535l10.571-58.231
		L-157.675,435.257z M-71.159,276.499l39.12,57.229l10.777-59.324L-71.159,276.499z M-32.04,333.728l-23.553,129.658l2.721,0.752
		l23.085-127.111L-32.04,333.728z M-66.164,521.617l2.942-0.473l10.35-57.007l-2.721-0.752L-66.164,521.617z M-32.04,333.728
		l2.253,3.299l11.397-62.741l-2.874,0.118L-32.04,333.728z M-29.786,337.026l-23.085,127.111l48.55,13.376L15.936,403.9
		L-29.786,337.026z M-52.871,464.138l-10.35,57.007l49.064-7.889l9.836-35.742L-52.871,464.138z M3.746,273.356l-22.134,0.929
		l-11.397,62.741L15.936,403.9l14.186-51.536L10.1,283.639L3.746,273.356z M30.122,352.364l6.903-25.098L10.1,283.639
		L30.122,352.364z M-109.352,258.536l9.051-0.385l8.777-11.44l-4.13-6.031L-109.352,258.536z M-95.654,240.681l4.13,6.031
		l43.679-56.936l-3.907-6.32L-95.654,240.681z M-117.497,269.146l8.146-10.609l-55.513,2.315l-15.181,16.521L-117.497,269.146z
		 M-180.046,277.372l-1.822,1.981l0.275,1.756l47.348-1.979l16.105-9.149l0.644-0.836L-180.046,277.372z M-134.246,279.131
		l9.381-0.391l6.724-8.758L-134.246,279.131z M-109.352,258.536l-8.146,10.609l1.074-0.143l13.834-7.861l2.288-2.99
		L-109.352,258.536z M-118.141,269.982l1.717-0.979l-1.074,0.143L-118.141,269.982z M-116.423,269.002l8.672-1.139l5.163-6.722
		L-116.423,269.002z M-118.141,269.982l-6.724,8.758l9.057-0.378l8.057-10.499l-8.672,1.139L-118.141,269.982z M-95.654,240.681
		l-21.604-31.617l-47.607,51.788l55.513-2.315L-95.654,240.681z"/>
	<path opacity="0.1522" clip-path="url(#SVGID_2_)" fill="none" stroke="#00AFC0" stroke-miterlimit="10" d="M-178.039,304.034
		l43.793-24.903l-47.348,1.979L-178.039,304.034z M-178.039,304.034l2.307,14.85l35.602-20.24l15.265-19.904l-9.381,0.391
		L-178.039,304.034z M-124.865,278.74l-15.265,19.904l15.533-8.835l8.789-11.446L-124.865,278.74z M-172.355,340.652l32.226-42.008
		l-35.602,20.24L-172.355,340.652z M-172.355,340.652l1.466,9.487l46.292-60.331l-15.533,8.835L-172.355,340.652z"/>
	<path opacity="0.1522" clip-path="url(#SVGID_2_)" fill="none" stroke="#00AFC0" stroke-miterlimit="10" d="M505.934-403.206
		l-5.941-59.292l-19.041,20.71L505.934-403.206z M278.426,548.388l33.571-30.255l8.053-13.847l-63.689,47.873L278.426,548.388z
		 M296.163,545.35l15.834-27.217l-33.571,30.255L296.163,545.35z M-100.301,258.151l3.198-0.131l9.582-5.449l-4.002-5.86
		L-100.301,258.151z M-91.524,246.711l4.002,5.86l58.061-33.013l-18.384-29.784L-91.524,246.711z M-84.163,257.479l-3.358-4.908
		l-9.582,5.449L-84.163,257.479z M-29.461,219.559l-58.061,33.013l3.358,4.908l17.734-0.744l44.346-25.217L-29.461,219.559z
		 M-102.589,261.141l5.486-3.12l-3.198,0.131L-102.589,261.141z M-97.103,258.021l-5.486,3.12l-5.163,6.723l28.156-3.697
		l-4.567-6.687L-97.103,258.021z M-79.596,264.166l0.138-0.029l13.029-7.402l-17.734,0.744L-79.596,264.166z M-79.596,264.166
		l-28.156,3.697l-8.057,10.499l12.242-0.509l24.001-13.649L-79.596,264.166z M-79.565,264.204l0.107-0.067l-0.138,0.029
		L-79.565,264.204z M-22.083,231.518l-44.346,25.217l48.75-2.041l2.247-12.402L-22.083,231.518z M-66.429,256.735l-13.029,7.402
		l61.531-8.088l0.248-1.354L-66.429,256.735z M-103.566,277.853l32.407-1.354l-8.406-12.295L-103.566,277.853z M-79.565,264.204
		l8.406,12.295l49.897-2.096l3.335-18.354l-61.531,8.088L-79.565,264.204z M-17.679,254.694l2.874-0.118l1.579-8.717l-2.205-3.566
		L-17.679,254.694z M-8.018,254.29l-5.209-8.431l-1.579,8.717L-8.018,254.29z M-17.679,254.694l-0.248,1.354l2.928-0.379
		l0.193-1.094L-17.679,254.694z M-17.927,256.049l-3.335,18.354l2.874-0.118l3.39-18.615L-17.927,256.049z M-14.806,254.576
		l-0.193,1.094l7.235-0.952l-0.254-0.428L-14.806,254.576z M-14.999,255.67l-3.39,18.615l22.134-0.929l-11.509-18.638
		L-14.999,255.67z"/>
	<path opacity="0.1522" clip-path="url(#SVGID_2_)" fill="none" stroke="#00AFC0" stroke-miterlimit="10" d="M215.819,264.486
		l-9.964,81.615l38.972-57.417l-23.161-24.445L215.819,264.486z M244.827,288.684l17.748-26.156l-40.909,1.711L244.827,288.684z
		 M201.087,385.136l4.768-39.035l-8.292,12.216L201.087,385.136z M201.087,385.136l4.783,36.447l102.123-66.207l-63.166-66.692
		l-38.972,57.417L201.087,385.136z M331.826,259.63l-69.251,2.898l-17.748,26.156l63.166,66.692l32.205-20.879l38.214-46.766
		L331.826,259.63z M205.871,421.583l7.235,55.113l12.536-2.02l114.557-140.18L205.871,421.583z M378.412,287.731l-38.214,46.766
		l20.728-13.438l15.307-18.737l3.012-14.084L378.412,287.731z M340.198,334.497l-114.557,140.18l11.225-1.805l124.06-151.813
		L340.198,334.497z M379.244,288.238l-3.012,14.084l3.004-3.669l1.974-9.234L379.244,288.238z M379.236,298.653l5.709-6.981
		l-3.735-2.253L379.236,298.653z M374.049,312.549l2.184-10.228l-15.307,18.737L374.049,312.549z M360.926,321.059l-124.06,151.813
		l106.604-17.149l30.578-143.173L360.926,321.059z M376.232,302.322l-2.184,10.228l2.576-1.669l2.611-12.227L376.232,302.322z
		 M343.471,455.723l2.298-0.364l30.856-144.479l-2.576,1.669L343.471,455.723z M379.236,298.653l-2.611,12.227l19.36-12.552
		l-11.04-6.656L379.236,298.653z M376.625,310.88l-30.856,144.479l3.036-0.49l79.67-136.938l-32.489-19.603L376.625,310.88z
		 M214.618,488.179l11.024-13.502l-12.536,2.02L214.618,488.179z M214.618,488.179l1.347,10.271l20.902-25.577l-11.225,1.805
		L214.618,488.179z M343.471,455.723l-106.604,17.149l-20.902,25.577l7.779,59.293l32.618-5.583l63.689-47.873l20.619-35.441
		L343.471,455.723z M343.471,455.723l-2.802,13.122l3.512-6.029l1.588-7.457L343.471,455.723z M344.181,462.815l4.624-7.947
		l-3.036,0.49L344.181,462.815z"/>
	<path opacity="0.1522" clip-path="url(#SVGID_2_)" fill="none" stroke="#00AFC0" stroke-miterlimit="10" d="M462.845-92.857
		l7.517,39.336l16.098,24.864l60.319,33.115l-9.522-94.988l-58.83-75.268L462.845-92.857z M476.677-168.042l1.749,2.244l4.714-22.07
		l-1.748-2.244L476.677-168.042z M481.392-190.111l1.748,2.244l27.933-130.779l-2.217-0.058L481.392-190.111z M511.072-318.646
		l2.272-10.638l-0.711-7.087l-3.778,17.667L511.072-318.646z M478.426-165.798l58.83,75.268l-3.225-32.225l-50.892-65.113
		L478.426-165.798z M483.14-187.868l50.892,65.113l-20.687-206.529L483.14-187.868z M449.941,212.133l21.78,31.47l33.969-58.396
		l-6.392-33.47L449.941,212.133z M505.69,185.208l7.719-13.253l-5.805-30.381l-8.306,10.165L505.69,185.208z M507.604,141.573
		l5.805,30.381l42.785-73.538l-1.46-14.511L507.604,141.573z M180.701,229.935l7.529-0.99l-8.887-9.38L180.701,229.935z
		 M171.938,163.188l7.406,56.376l8.887,9.38l32.458-4.271l3.648-29.873L171.938,163.188z M220.688,224.674l43.657-5.745
		l-40.009-24.128L220.688,224.674z M182.851,246.309l20.993-0.88l-15.614-16.484l-7.529,0.99L182.851,246.309z M188.23,228.944
		l15.614,16.484l14.38-0.603l2.463-20.152L188.23,228.944z M264.345,218.929l-43.657,5.745l-2.463,20.152l58.006-2.428l7.851-11.568
		L264.345,218.929z M276.23,242.397l25.27-1.055l-17.418-10.514L276.23,242.397z M182.851,246.309l2.557,19.448l30.412-1.271
		l0.697-5.685l-12.673-13.373L182.851,246.309z M221.666,264.239l-5.149-5.438l-0.697,5.685L221.666,264.239z M216.517,258.801
		l1.708-13.976l-14.38,0.603L216.517,258.801z M218.224,244.826l-1.708,13.976l5.149,5.438l40.909-1.71l13.656-20.131
		L218.224,244.826z M276.23,242.397l-13.656,20.131l69.251-2.899L301.5,241.343L276.23,242.397z M197.563,358.316l8.292-12.215
		l9.964-81.615l-30.412,1.271L197.563,358.316z"/>
	<path opacity="0.1522" clip-path="url(#SVGID_2_)" fill="none" stroke="#00AFC0" stroke-miterlimit="10" d="M432.284-252.931
		l49.107,62.819l23.218-108.709l-53.598-1.435l-21.797,31.227L432.284-252.931z M412.816-301.276l10.292,0.273l-3.842-20.1
		l-10.291-0.279L412.816-301.276z M408.976-321.383l10.291,0.279l-8.469-44.358l-8.482,9.232L408.976-321.383z M423.108-301.003
		l27.903,0.749l13.703-19.631l-45.448-1.217L423.108-301.003z M504.609-298.82l4.246-19.884l-44.141-1.182l-13.703,19.631
		L504.609-298.82z M452.283-382.003L441.61-398.98l-30.724,33.427L452.283-382.003z M410.887-365.554l-0.089,0.092l8.469,44.358
		l45.448,1.217l14.017-20.075l-26.448-42.042L410.887-365.554z M441.61-398.98l37.121,59.02l29.329-42.016l-2.127-21.229
		l-24.982-38.582L441.61-398.98z M478.731-339.961l-14.017,20.075l44.141,1.182l3.778-17.667l-4.573-45.605L478.731-339.961z
		 M467.327-39.157l-4.991-2.743l1.507,7.88L467.327-39.157z M467.317-15.784l11.444,6.283l-4.981-26.116l-6.453-3.541l-3.484,5.137
		L467.317-15.784z M478.762-9.501l31.175,17.112l-23.478-36.269l-12.679-6.959L478.762-9.501z M549.256,29.184l-2.478-24.726
		l-60.319-33.116l23.478,36.269L549.256,29.184z M457.439-67.547l0.956-4.465l-1.668-2.572l-0.333,1.552L457.439-67.547z
		 M456.728-74.583l1.668,2.572l4.449-20.846l-1.044-5.491L456.728-74.583z M457.439-67.547l4.896,25.647l4.991,2.743l4.513-6.641
		l-1.479-7.724l-11.966-18.49L457.439-67.547z M471.84-45.798l-4.513,6.641l6.453,3.541L471.84-45.798z M470.361-53.521
		l-7.517-39.336l-4.449,20.846L470.361-53.521z M461.801-98.349l1.044,5.491l15.581-72.94l-1.749-2.243L461.801-98.349z
		 M473.643-48.459l-3.281-5.062l1.479,7.724L473.643-48.459z M473.78-35.617l12.679,6.959l-12.816-19.801l-1.803,2.661
		L473.78-35.617z"/>
	<path opacity="0.1522" clip-path="url(#SVGID_2_)" fill="none" stroke="#00AFC0" stroke-miterlimit="10" d="M355.813-302.802
		l2.184-5.21l-4.724,5.141L355.813-302.802z M357.997-308.012l-2.184,5.21l15.869,0.42l-8.669-11.09L357.997-308.012z
		 M363.014-313.472l8.669,11.09l22.42,0.603l-15.963-20.43l-6.923-0.183L363.014-313.472z M394.103-301.778l18.714,0.501
		l-3.841-20.106l-30.836-0.825L394.103-301.778z M378.14-322.208l-3.26-4.17l-3.663,3.987L378.14-322.208z M378.14-322.208
		l30.836,0.825l-6.66-34.847l-27.436,29.851L378.14-322.208z M448.493-36.064l-1.899,8.898l1.993,1.088l4.464-20.915l-1.987-1.094
		L448.493-36.064z M448.587-26.078l7.182,3.952l8.074-11.895l-1.507-7.879l-9.285-5.093L448.587-26.078z M463.843-34.021
		l-8.074,11.895l11.549,6.341L463.843-34.021z M454.95-55.891l-2.136-0.405l-0.394,1.844L454.95-55.891z M451.063-48.087
		l1.987,1.094l1.899-8.898l-2.529,1.439L451.063-48.087z M452.814-56.296l2.136,0.405l2.489-11.656l-1.045-5.484L452.814-56.296z
		 M453.051-46.993l9.285,5.093l-4.896-25.647L453.051-46.993z M456.395-73.031l0.333-1.553l-0.892-1.381L456.395-73.031z
		 M425.828-233.11l30.008,157.146l0.892,1.381l5.073-23.765l-22.423-117.428L425.828-233.11z M461.801-98.349l14.876-69.693
		l-37.299-47.735L461.801-98.349z M424.729-262.599l-5.995-7.659l2.438,12.745L424.729-262.599z M425.828-233.11l13.55,17.333
		l-7.094-37.154l-7.555-9.668l-3.558,5.086L425.828-233.11z M418.734-270.258l5.995,7.659l4.485-6.429l-6.106-31.976l-10.292-0.273
		L418.734-270.258z M429.215-269.028l-4.485,6.429l7.555,9.668L429.215-269.028z M439.378-215.777l37.299,47.735l4.715-22.07
		l-49.107-62.819L439.378-215.777z M451.012-300.255l-27.903-0.749l6.106,31.976L451.012-300.255z"/>
	<path opacity="0.1522" clip-path="url(#SVGID_2_)" fill="none" stroke="#00AFC0" stroke-miterlimit="10" d="M263.709-127.53
		l15.035,8.253l0.305-0.724l-1.104-12.766l-0.938-10.837l-10.618-5.826L263.709-127.53z M319.691-112.155l-11.056,9.281
		l48.666,26.71l-11.201-29.522l-22.358-12.264L319.691-112.155z M362.688-73.209l64.722,12.15l-81.309-44.626l11.201,29.522
		L362.688-73.209z M263.709-127.53l2.681-21.899l-35.994-19.751l-14.273,15.526L263.709-127.53z M446.054-50.823l6.367-3.629
		l0.394-1.844l-25.405-4.763L446.054-50.823z M452.421-54.452l-6.367,3.629l5.01,2.736L452.421-54.452z M274.695-217.38
		l-2.398,19.617l4.71,54.16l9.717,5.337l24.695-58.813l-16.179-42.648L274.695-217.38z M286.725-138.267l37.018,20.317l11.467-16.43
		L311.42-197.08L286.725-138.267z M346.101-105.686l-10.892-28.693l-11.467,16.43L346.101-105.686z M277.007-143.604l-4.71-54.16
		l-5.907,48.333L277.007-143.604z M295.241-239.728l16.179,42.648l25.963-61.839l-10.129-15.647L295.241-239.728z M311.42-197.08
		l23.789,62.701l42.962-61.536l-40.788-63.004L311.42-197.08z M335.209-134.379l10.892,28.693l81.309,44.626l25.405,4.763
		l3.58-16.735l-0.559-2.933l-77.665-119.95L335.209-134.379z M327.254-274.566l10.129,15.647l18.431-43.882l-2.54-0.069
		L327.254-274.566z M272.297-197.763l2.398-19.617l-3.746,4.08L272.297-197.763z M337.383-258.919l40.788,63.004l36.197-51.856
		l-42.686-54.61l-15.869-0.42L337.383-258.919z M378.171-195.915l77.665,119.95L425.828-233.11l-11.46-14.661L378.171-195.915z
		 M230.396-169.181l35.994,19.751l5.907-48.333l-1.348-15.537L230.396-169.181z M371.683-302.381l42.686,54.61l6.804-9.742
		l-2.438-12.746l-24.632-31.52L371.683-302.381z M414.368-247.771l11.46,14.661l-4.656-24.402L414.368-247.771z M418.734-270.258
		l-5.918-31.019l-18.714-0.501L418.734-270.258z"/>
	<path opacity="0.1522" clip-path="url(#SVGID_2_)" fill="none" stroke="#00AFC0" stroke-miterlimit="10" d="M422.999,97.045
		l-0.452-1.205l-0.251,1.167L422.999,97.045z M410.025,154.449l21.896,31.641l-8.923-89.044l-0.703-0.037L410.025,154.449z
		 M444.056-4.871l1.688-2.495l-1.058-0.461L444.056-4.871z M445.744-7.365l10.023-14.759l-7.181-3.953l-3.9,18.251L445.744-7.365z
		 M455.768-22.125L444.056-4.871L422.547,95.84l0.452,1.205l8.923,89.044l13.548,19.583l51.986-63.604L467.317-15.784
		L455.768-22.125z M449.941,212.133l49.357-60.396l-1.843-9.668l-51.986,63.604L449.941,212.133z M497.456,142.069l8.306-10.158
		l-27-141.411l-11.444-6.283L497.456,142.069z M552.993,74.114L509.937,7.611L478.762-9.5l27,141.411L552.993,74.114z
		 M553.675,73.278l-4.419-44.094L509.937,7.611l43.057,66.503L553.675,73.278z M497.456,142.069l1.843,9.668l8.306-10.165
		l-1.843-9.662L497.456,142.069z M552.993,74.114l-47.231,57.796l1.843,9.662l47.13-57.667l-0.837-8.398L552.993,74.114z
		 M553.897,75.507l-0.223-2.229l-0.682,0.836L553.897,75.507z M427.137-40.07l-6.189-1.162l4.188,2.298L427.137-40.07z
		 M425.136-38.934l14.462,7.932l8.896-5.062l-21.356-4.006L425.136-38.934z M446.594-27.165l1.899-8.899l-8.896,5.062
		L446.594-27.165z M420.947-41.232l6.189,1.162l18.917-10.752l-18.645-10.236l-64.722-12.149L420.947-41.232z M448.493-36.064
		l2.57-12.022l-5.01-2.736L427.137-40.07L448.493-36.064z M283.306-130.123l-5.36-2.643L279.049-120L283.306-130.123z
		 M277.946-132.766l5.36,2.643l3.418-8.143l-9.717-5.336L277.946-132.766z M279.133-119.064L279.049-120l-0.305,0.724
		L279.133-119.064z M279.049-120l0.083,0.936l29.503,16.191l11.056-9.281l-36.385-17.969L279.049-120z M319.691-112.154l4.051-5.794
		l-37.018-20.317l-3.418,8.143L319.691-112.154z"/>
	<path opacity="0.1522" clip-path="url(#SVGID_2_)" fill="none" stroke="#00AFC0" stroke-miterlimit="10" d="M329.182-58.454
		l-48.265-21.15l-11.771,9.886L329.182-58.454z M256.935-72.013l1.819,0.344l6.258-14.906l-5.978-2.616L256.935-72.013z
		 M259.035-89.191l0.414-3.39l-14.242-2.673L259.035-89.191z M265.012-86.575l15.905,6.972l1.542-1.288l-0.654-7.497l-14.857-2.784
		L265.012-86.575z M289.634-86.918l-7.829-1.471l0.654,7.497L289.634-86.918z M259.035-89.191l5.978,2.616l1.936-4.597l-7.5-1.409
		L259.035-89.191z M280.917-79.604l48.265,21.15l37.504,7.043l-8.593-22.657l-68.459-12.851l-7.175,6.026L280.917-79.604z
		 M366.686-51.41l54.261,10.178l-58.259-31.976l-4.595-0.859L366.686-51.41z M245.207-95.254l-9.662-4.232l-0.826,0.571l1.343,1.943
		L245.207-95.254z M259.449-92.581l3.126-25.638l-27.029,18.732l9.662,4.232L259.449-92.581z M266.948-91.172l14.857,2.784
		l-2.672-30.676l-0.389-0.212L266.948-91.172z M281.805-88.389l7.829,1.471l19.002-15.955l-29.503-16.191L281.805-88.389z
		 M358.093-74.067l-0.791-2.096l-48.666-26.71l-19.002,15.955L358.093-74.067z M259.449-92.581l7.5,1.409l11.796-28.104
		l-15.035-8.253L259.449-92.581z M362.688-73.208l-5.386-2.955l0.791,2.096L362.688-73.208z M213.12-150.39l-7.368,9.613
		l28.968,41.861l0.826-0.571l27.029-18.732l1.134-9.311l-47.586-26.124L213.12-150.39z M420.1,96.895l2.196,0.113l0.251-1.168
		l-1.417-3.733L420.1,96.895z M410.025,154.448l12.271-57.44l-2.196-0.113L408.337,152L410.025,154.448z M442.653-8.722
		l-1.839,8.619l3.241-4.768l0.631-2.956L442.653-8.722z M442.653-8.722l2.033,0.896l3.9-18.25l-1.993-1.088L442.653-8.722z
		 M421.13,92.107l1.417,3.733L444.056-4.871l-3.241,4.768L421.13,92.107z"/>
	<path opacity="0.1522" clip-path="url(#SVGID_2_)" fill="none" stroke="#00AFC0" stroke-miterlimit="10" d="M436.213,228.928
		l4.08,40.673l26.17-16.964l5.259-9.033l-21.78-31.47L436.213,228.928z M442.685,293.509l23.778-40.872l-26.17,16.964
		L442.685,293.509z M205.752-140.776l7.368-9.614l-7.994,8.705L205.752-140.776z M256.396-67.584l0.538-4.428l-4.141-0.777
		L256.396-67.584z M256.797-67.003l3.348,4.839l9.001-7.553l-10.393-1.952L256.797-67.003z M256.797-67.003l1.957-4.666
		l-1.819-0.343l-0.538,4.428L256.797-67.003z M269.146-69.717l-9.001,7.553l58.124,83.994l62.691-35.637l-9.992-26.334
		l-41.786-18.312L269.146-69.717z M370.968-40.141l-4.282-11.269l-37.504-7.043L370.968-40.141z M402.752-26.204l-31.784-13.937
		l9.992,26.334L402.752-26.204z M370.968-40.141l31.784,13.937l22.384-12.729l-4.188-2.298L366.686-51.41L370.968-40.141z
		 M318.269,21.83l8.02,11.596l59.703-33.95l-5.031-13.283L318.269,21.83z M380.96-13.807l5.031,13.283l32.808-18.649l-16.047-7.031
		L380.96-13.807z M418.799-19.173l20.799-11.829l-14.462-7.931l-22.384,12.729L418.799-19.173z M368.354,94.221l8.152,0.423
		l29.248-43.077L385.991-0.524l-59.703,33.95L368.354,94.221z M376.507,94.644l43.593,2.25l1.03-4.788l-15.375-40.54L376.507,94.644
		z M372.613,100.379l3.894-5.735l-8.152-0.423L372.613,100.379z M372.613,100.379L408.337,152L420.1,96.895l-43.593-2.25
		L372.613,100.379z M385.991-0.524l19.764,52.091l35.06-51.67l1.839-8.62l-23.854-10.451L385.991-0.524z M418.799-19.173
		l23.854,10.451l3.94-18.443l-6.996-3.837L418.799-19.173z M421.13,92.107l19.685-92.209l-35.06,51.67L421.13,92.107z
		 M236.062-96.972l16.732,24.183l4.141,0.777l2.1-17.179l-13.828-6.063L236.062-96.972z M269.146-69.717l11.771-9.886l-15.905-6.972
		l-6.258,14.906L269.146-69.717z"/>
	<path opacity="0.1522" clip-path="url(#SVGID_2_)" fill="none" stroke="#00AFC0" stroke-miterlimit="10" d="M396.5,217.801
		l23.887,18.567l14.766-18.061l-3.23-32.219l-21.896-31.641L396.5,217.801z M445.47,205.672l-13.548-19.583l3.23,32.219
		L445.47,205.672z M420.387,236.368l-12.411,15.198l5.955,4.629l22.282-27.267l-1.061-10.621L420.387,236.368z M435.152,218.308
		l1.061,10.621l13.729-16.795l-4.472-6.461L435.152,218.308z M384.945,291.672l11.04,6.656l44.308-28.727l-4.08-40.673
		L384.945,291.672z M395.985,298.328l32.488,19.603l14.211-24.422l-2.392-23.908L395.985,298.328z"/>
	<path opacity="0.1522" clip-path="url(#SVGID_2_)" fill="none" stroke="#00AFC0" stroke-miterlimit="10" d="M255.233-58.037
		L240.032,66.313l78.236-44.484l-58.124-83.994L255.233-58.037z M143.461-59.577l-0.525,1.904l2.688,20.485l63.27-43.841
		l-42.813-8.034L143.461-59.577z M228.198,87.006l3.535,0.187l6.184-3.514l2.116-17.365l-22.208,12.633L228.198,87.006z
		 M237.917,83.679l88.372-50.253l-8.02-11.596l-78.236,44.484L237.917,83.679z M229.826,88.269l1.906-1.076l-3.535-0.187
		L229.826,88.269z M211.368,98.767l22.56,17.535l2.769-22.689l-6.871-5.343L211.368,98.767z M317.651,181.364l11.041-16.262
		l-91.996-71.49l-2.769,22.689L317.651,181.364z M317.651,181.364l72.398,56.264l4.545-21.306l-65.902-51.22L317.651,181.364z
		 M231.732,87.192l5.719,0.293l0.465-3.807L231.732,87.192z M237.452,87.485l130.903,6.735l-42.066-60.795l-88.372,50.253
		L237.452,87.485z M229.826,88.269l6.871,5.343l0.755-6.126l-5.719-0.293L229.826,88.269z M237.452,87.485l-0.755,6.126
		l91.996,71.49l43.921-64.723l-4.259-6.158L237.452,87.485z M394.595,216.321L408.337,152l-35.724-51.622l-43.921,64.723
		L394.595,216.321z M232.79-97.584l-23.896,16.555l43.899,8.239l-16.731-24.183L232.79-97.584z M180.187-107.453l-14.105,18.391
		l42.813,8.034l23.896-16.555L180.187-107.453z M236.062-96.973l-1.343-1.943l-1.929,1.332L236.062-96.973z M232.79-97.584
		l1.929-1.332l-28.968-41.861l-25.565,33.324L232.79-97.584z M390.05,237.627l0.006,0.006l2.231-0.086l4.213-19.747l-1.905-1.479
		L390.05,237.627z M392.287,237.548l28.1-1.18L396.5,217.801L392.287,237.548z M391.954,239.113l0.333-1.565l-2.231,0.086
		L391.954,239.113z M391.954,239.113l16.021,12.453l12.411-15.197l-28.1,1.18L391.954,239.113z M394.595,216.321l1.905,1.479
		l13.525-63.353L408.337,152L394.595,216.321z"/>
	<path opacity="0.1522" clip-path="url(#SVGID_2_)" fill="none" stroke="#00AFC0" stroke-miterlimit="10" d="M388.075,257.277
		l15.764-0.66l4.137-5.051l-16.021-12.453L388.075,257.277z M413.931,256.195l-5.955-4.629l-4.137,5.051L413.931,256.195z
		 M385.837,257.375l-54.011,2.254l46.586,28.102l1.272-1.555L385.837,257.375z M378.412,287.731l0.832,0.507l0.44-2.062
		L378.412,287.731z M379.685,286.177l3.004-3.675l5.387-25.224l-2.238,0.098L379.685,286.177z M403.839,256.617l-15.764,0.66
		l-5.387,25.224L403.839,256.617z M379.244,288.238l1.966,1.181l1.479-6.918l-3.004,3.675L379.244,288.238z M382.688,282.501
		l-1.479,6.918l3.735,2.253l28.985-35.477l-10.092,0.422L382.688,282.501z M149.36-81.014l-0.998,3.635l10.064-13.119l-0.298-0.055
		L149.36-81.014z M148.363-77.379l-4.901,17.803l22.62-29.486l-7.655-1.436L148.363-77.379z M158.427-90.498l1.753-2.288
		l-2.051,2.233L158.427-90.498z M158.427-90.498l7.655,1.436l14.105-18.39l-5.562-1.051L160.18-92.786L158.427-90.498z
		 M174.624-108.503l5.562,1.051l25.565-33.324l-0.625-0.908L174.624-108.503z M193.965,85.244l11.718,0.604l12.142-6.9
		l-63.426-49.294l3.641,27.663L193.965,85.244z M199.366,89.439l6.316-3.592l-11.718-0.604L199.366,89.439z M228.198,87.007
		l-10.374-8.06l-12.142,6.9L228.198,87.007z M205.683,85.847l-6.316,3.592l12.002,9.328l18.458-10.498l-1.628-1.263L205.683,85.847z
		 M251.839-55.191l3.395-2.845l0.901-7.377L251.839-55.191z M256.134-65.413l0.262-2.17l-3.603-5.205l-43.899-8.24l-63.27,43.842
		l8.774,66.839l63.426,49.294l22.208-12.633l15.201-124.35l-3.395,2.845L256.134-65.413z M256.134-65.413l-0.901,7.377l4.912-4.128
		l-3.348-4.839L256.134-65.413z M256.134-65.413l0.663-1.59l-0.401-0.581L256.134-65.413z"/>
	<path opacity="0.1522" clip-path="url(#SVGID_2_)" fill="none" stroke="#00AFC0" stroke-miterlimit="10" d="M189.432,480.503
		l23.673-3.807l-7.235-55.113l-10.036,6.506L189.432,480.503z M136.839,488.959l33.201,53.771l13.869-16.973l5.523-45.255
		L136.839,488.959z M189.432,480.503l-5.523,45.255l30.709-37.579l-1.512-11.482L189.432,480.503z M174.231,549.523l7.962-9.747
		l1.715-14.019L170.04,542.73L174.231,549.523z M183.909,525.758l-1.715,14.019l33.771-41.327l-1.347-10.271L183.909,525.758z
		 M179.883,558.679l2.311-18.902l-7.962,9.747L179.883,558.679z M179.883,558.679l3.665,5.935l40.195-6.871l-7.778-59.293
		l-33.771,41.327L179.883,558.679z M141.062-71.978l0.462,3.511l6.839-8.912l0.998-3.635L141.062-71.978z M141.524-68.467
		l1.275,9.752l0.663-0.861l4.901-17.803L141.524-68.467z M142.936-57.672l0.525-1.904l-0.663,0.861L142.936-57.672z M193.965,85.243
		l-35.926-27.927l3.447,26.251L193.965,85.243z M161.486,83.567l3.342,25.507l34.538-19.635l-5.401-4.196L161.486,83.567z
		 M164.828,109.074l1.974,15.031l44.566-25.338l-12.002-9.328L164.828,109.074z M171.938,163.188l52.398,31.612l2.863-23.442
		l-59.193-38.088L171.938,163.188z M224.335,194.801l40.009,24.128l30.541-4.017l-67.687-43.553L224.335,194.801z M284.081,230.829
		l10.805-15.917l-30.541,4.017L284.081,230.829z M168.006,133.27l59.193,38.088l6.729-55.057l-22.56-17.535l-44.566,25.338
		L168.006,133.27z M227.199,171.358l67.687,43.553l22.766-33.547l-83.724-65.062L227.199,171.358z M294.886,214.912l-10.805,15.917
		l17.419,10.514l88.55-3.703v-0.012l-72.398-56.264L294.886,214.912z M390.05,237.64l-88.55,3.703l30.326,18.287l54.011-2.255
		L390.05,237.64z M390.056,237.634l-0.006-0.006v0.012L390.056,237.634z M390.05,237.64l-4.213,19.735l2.238-0.098l3.88-18.164
		l-1.899-1.479L390.05,237.64z"/>
	<path opacity="0.1522" clip-path="url(#SVGID_2_)" fill="none" stroke="#00AFC0" stroke-miterlimit="10" d="M161.486,83.567
		l-3.447-26.251l-38.513-29.924l-14.651,53.254L161.486,83.567z M122.307,133.251l24.252-13.788l-44.484-28.625l-7.129,25.911
		L122.307,133.251z M104.875,80.646l-2.8,10.192l44.484,28.625l18.27-10.39l-3.342-25.507L104.875,80.646z M122.307,133.251
		l13.788,8.319l23.793-13.528l-13.329-8.579L122.307,133.251z M159.888,128.042l6.914-3.937l-1.974-15.031l-18.27,10.39
		L159.888,128.042z M159.888,128.042l-23.793,13.528l35.842,21.618l-3.931-29.918L159.888,128.042z M168.006,133.27l-1.204-9.165
		l-6.914,3.937L168.006,133.27z M119.526,27.392l38.513,29.924l-3.641-27.664L125.159,6.928L119.526,27.392z M125.159,6.928
		l29.239,22.725l-8.774-66.839l-10.29,7.125L125.159,6.928z M135.335-30.062l10.29-7.125l-2.688-20.485L135.335-30.062z
		 M84.49,154.762l21.749-12.373l-14.213-15.008L84.49,154.762z M92.025,127.381l14.213,15.008l16.068-9.138l-27.361-16.502
		L92.025,127.381z M84.49,154.762l-5.273,19.155l36.967-21.027l-9.945-10.501L84.49,154.762z M106.239,142.389l9.945,10.501
		l19.911-11.32l-13.788-8.319L106.239,142.389z M79.217,173.917l-19.799,71.963l121.283-15.946l-1.357-10.371l-63.16-66.673
		L79.217,173.917z M116.184,152.891l63.16,66.673l-7.406-56.375l-35.842-21.618L116.184,152.891z M59.417,245.881l-1.556,5.651
		l124.989-5.223l-2.149-16.374L59.417,245.881z M52.421,271.32l132.986-5.563l-2.557-19.448l-124.989,5.223L52.421,271.32z
		 M37.025,327.267l86.506,140.131l74.032-109.081l-12.156-92.56L52.421,271.32L37.025,327.267z M123.531,467.397l3.338,5.406
		l68.966-44.715l5.253-42.953l-3.524-26.819L123.531,467.397z M195.834,428.089l10.036-6.506l-4.783-36.447L195.834,428.089z
		 M126.869,472.804l9.97,16.155l52.593-8.456l6.402-52.414L126.869,472.804z"/>
	<path opacity="0.1522" clip-path="url(#SVGID_2_)" fill="none" stroke="#00AFC0" stroke-miterlimit="10" d="M64.613,98.449
		L35.631,80.971l-24.774,32.284l-16.89,92.969l90.523-51.462l7.535-27.381L64.613,98.449z M94.945,116.749l-30.332-18.3
		l27.412,28.932L94.945,116.749z M-12.483,226.064l3.183-1.814l0.8-4.424l-1.757-6.033L-12.483,226.064z M-10.257,213.792
		l1.757,6.033l2.467-13.601l-3.183,1.808L-10.257,213.792z M-9.3,224.25l1.793-1.022l-0.994-3.402L-9.3,224.25z M-6.033,206.225
		L-8.5,219.826l0.994,3.402l86.723-49.31l5.273-19.155L-6.033,206.225z M-15.432,242.293l2.949-16.229l-9.6,5.455L-15.432,242.293z
		 M-15.432,242.293l2.205,3.566l3.927-21.61l-3.183,1.814L-15.432,242.293z M-13.227,245.859l5.209,8.431l5.067-0.211l4.271-0.561
		l-8.827-30.291L-9.3,224.25L-13.227,245.859z M1.426,253.894l-0.105-0.375l-4.271,0.561L1.426,253.894z M-7.506,223.228
		l8.827,30.291l58.097-7.637l19.799-71.963L-7.506,223.228z M1.426,253.894l56.436-2.362l1.556-5.651L1.32,253.518L1.426,253.894z
		 M-7.764,254.718l4.813-0.639l-5.067,0.211L-7.764,254.718z M-2.95,254.079l-4.813,0.639l11.509,18.638l3.31-0.142l-5.63-19.321
		L-2.95,254.079z M7.056,273.214l45.365-1.895l5.44-19.788l-56.436,2.362L7.056,273.214z M10.1,283.639l-3.044-10.425l-3.31,0.142
		L10.1,283.639z M7.056,273.214l3.044,10.425l26.925,43.627l15.396-55.947L7.056,273.214z M-47.845,189.775l22.174-28.902
		l-2.41-8.27l-23.672,30.852L-47.845,189.775z M-28.081,152.604l2.41,8.27l32.792-42.741l2.715-14.955L-28.081,152.604z
		 M16.024,69.135l-3.008-1.81l-7.537,8.202l9.292,0.474L16.024,69.135z M-28.081,152.604l-8.974-30.798l-31.556,34.335
		l16.857,27.314L-28.081,152.604z M9.837,103.178l4.934-27.177l-9.292-0.474l-42.534,46.279l8.974,30.798L9.837,103.178z"/>
	<path opacity="0.1522" clip-path="url(#SVGID_2_)" fill="none" stroke="#00AFC0" stroke-miterlimit="10" d="M102.075,90.838
		l2.8-10.192l-20.256-1.039L102.075,90.838z M87.239,2.29l11.938-15.561l-7.049-5.478L78.813-4.253L87.239,2.29z M92.72,6.555
		l11.607-15.13L87.903,2.806L92.72,6.555z M87.239,2.29l0.664,0.516l16.424-11.381l0.331-0.43l-5.481-4.266L87.239,2.29z
		 M92.128-18.749l7.049,5.478l42.347-55.196l-0.461-3.511L92.128-18.749z M104.658-9.006l38.141-49.709l-1.275-9.752L99.177-13.271
		L104.658-9.006z M104.327-8.576L92.72,6.555l26.806,20.837l5.633-20.464L104.793-8.904L104.327-8.576z M104.793-8.904l-0.135-0.102
		l-0.331,0.43L104.793-8.904z M125.159,6.928l10.176-36.989L104.793-8.904L125.159,6.928z M104.658-9.006l0.135,0.102l30.542-21.157
		l7.601-27.61l-0.137-1.043L104.658-9.006z M17.168,62.81l-4.152,4.515l3.008,1.81L17.168,62.81z M28.586,76.716l-9.991-6.027
		l-0.992,5.461L28.586,76.716z M17.603,76.15l-4.024,22.144L29.64,77.351l-1.054-0.635L17.603,76.15z M9.837,103.178l-2.715,14.956
		l3.735-4.878l2.721-14.961L9.837,103.178z M13.578,98.294l-2.721,14.961l24.774-32.284l-5.991-3.62L13.578,98.294z M18.595,70.688
		l-2.57-1.553l-1.253,6.866l2.832,0.149L18.595,70.688z M14.771,76.001l-4.934,27.177l3.741-4.884l4.024-22.144L14.771,76.001z
		 M-25.671,160.874l-22.174,28.902l18.384,29.784l17.911-10.196L-25.671,160.874z M-11.55,209.363l2.334-1.331l16.337-89.899
		l-32.792,42.74L-11.55,209.363z M-29.461,219.56l7.378,11.959l9.6-5.455l2.226-12.271l-1.293-4.429L-29.461,219.56z
		 M-10.257,213.792l1.041-5.76l-2.334,1.331L-10.257,213.792z M7.122,118.133l-16.337,89.899l3.183-1.808l16.89-92.969
		L7.122,118.133z"/>
	<path opacity="0.1522" clip-path="url(#SVGID_2_)" fill="none" stroke="#00AFC0" stroke-miterlimit="10" d="M414.375-442.289
		l4.179-9.962l-9.682,1.221L414.375-442.289z M401.832-412.421l0.714,3.728l8.24,43.176l0.101-0.036l30.724-33.427l-27.235-43.309
		L401.832-412.421z M410.798-365.461l0.089-0.092l-0.101,0.036L410.798-365.461z M414.375-442.289l27.235,43.309l39.341-42.807
		l-10.973-16.933l-51.425,6.47L414.375-442.289z M480.951-441.788l19.041-20.71l-30.014,3.777L480.951-441.788z M20.725,58.933
		l-2.13,11.755l9.991,6.027l1.494,0.076l6.272-8.18L23.905,55.479L20.725,58.933z M23.905,55.479l12.446,13.132l10.312-13.433
		L32.54,46.094L23.905,55.479z M32.54,46.094l14.124,9.085L85.639,4.375L44.998,32.53L32.54,46.094z M29.64,77.351l0.439-0.56
		l-1.494-0.076L29.64,77.351z M44.998,32.53L85.639,4.375l1.6-2.085l-8.425-6.542L44.998,32.53z M38.5,77.226l2.689-3.506
		l-4.837-5.108l-6.272,8.18L38.5,77.226z M36.352,68.611l4.837,5.108l11.333-14.767l-5.857-3.773L36.352,68.611z M85.639,4.375
		L46.664,55.179l5.857,3.773L92.721,6.555l-4.818-3.75L85.639,4.375z M30.08,76.792l-0.439,0.56l5.991,3.62l2.868-3.746
		L30.08,76.792z M87.903,2.806L87.239,2.29l-1.6,2.085L87.903,2.806z M18.595,70.688l2.13-11.755l-3.556,3.877l-1.144,6.325
		L18.595,70.688z M38.5,77.226l6.316,0.322l-3.627-3.828L38.5,77.226z M44.816,77.547l39.803,2.06L52.521,58.952L41.189,73.719
		L44.816,77.547z M52.521,58.952l32.097,20.655l20.256,1.039l14.651-53.254L92.721,6.555L52.521,58.952z M35.631,80.971
		l28.982,17.478L44.816,77.547L38.5,77.226L35.631,80.971z M44.816,77.547l19.797,20.902l30.332,18.3l7.129-25.911L84.619,79.607
		L44.816,77.547z"/>
	<path opacity="0.1522" clip-path="url(#SVGID_2_)" fill="none" stroke="#00AFC0" stroke-miterlimit="10" d="M361.391-343.642
		l7.524,9.63l7.493-17.845l-12.531,4.979L361.391-343.642z M386.937-376.935l-10.528,25.079l24.863-9.875l-5.188-27.129
		L386.937-376.935z M368.915-334.012l5.965,7.634l27.436-29.851l-1.044-5.503l-24.863,9.875L368.915-334.012z M223.754-351.398
		l34.545-7.512l-1.565-18.078l-27.586,5.995L223.754-351.398z M258.299-358.911l59.147-12.855l-12.307-15.747l-48.406,10.524
		L258.299-358.911z M229.147-370.994l27.586-5.995l-4.316-49.603l-10.607,9.582L229.147-370.994z M252.417-426.591l4.316,49.603
		l48.406-10.524l-35.91-45.947l-10.687,1.34L252.417-426.591z M317.446-371.766l18.764-4.079l-12.307-15.747l-18.764,4.079
		L317.446-371.766z M336.21-375.845l49.369-10.731l8.764-11.422l-1.632-8.555l-68.808,14.961L336.21-375.845z M385.579-386.576
		l5.946-1.292l3.269-7.778l-0.451-2.352L385.579-386.576z M396.083-388.861l-1.289-6.785l-3.269,7.778L396.083-388.861z
		 M305.14-387.513l18.764-4.079l-34.692-44.386l-19.982,2.519L305.14-387.513z M323.903-391.592l68.808-14.961l-7.916-41.45
		l-95.583,12.025L323.903-391.592z M397.517-402.144l2.522-6.008l-7.328,1.599l1.632,8.555L397.517-402.144z M397.517-402.144
		l5.029-6.55l-2.507,0.542L397.517-402.144z M394.794-395.646l2.723-6.497l-3.174,4.146L394.794-395.646z M394.794-395.646
		l1.289,6.785l5.188,27.129l9.515-3.786l-8.24-43.176l-5.029,6.55L394.794-395.646z M401.271-361.732l1.044,5.503l8.482-9.233
		l-0.012-0.056L401.271-361.732z M384.795-448.003l7.916,41.45l7.328-1.599l1.793-4.269l-7.036-36.842L384.795-448.003z
		 M402.546-408.694l-0.714-3.727l-1.793,4.269L402.546-408.694z M394.796-449.263l7.036,36.842l12.543-29.868l-5.503-8.741
		L394.796-449.263z"/>
	<path opacity="0.1522" clip-path="url(#SVGID_2_)" fill="none" stroke="#00AFC0" stroke-miterlimit="10" d="M351.282-341.874
		l-7.991,3.17l2.803,3.589L351.282-341.874z M385.579-386.576l-49.369,10.731l20.758,26.554L385.579-386.576z M360.044-345.354
		l-3.076-3.937l-5.686,7.417L360.044-345.354z M346.094-335.114l4.424,5.65l10.873-14.177l-1.347-1.713l-8.762,3.481
		L346.094-335.114z M385.579-386.576l-28.611,37.285l3.076,3.937l3.833-1.522l23.06-30.058l4.589-10.933L385.579-386.576z
		 M363.877-346.877l-3.833,1.522l1.347,1.713L363.877-346.877z M386.937-376.935l9.146-11.926l-4.558,0.993L386.937-376.935z
		 M215.771-153.84l0.352,0.187l14.273-15.526l-2.005-1.101L215.771-153.84z M276.621-233.146l-1.926,15.767l20.546-22.348
		l-4.49-11.834L276.621-233.146z M322.65-281.677l-5.2-4.685l-8.247,10.758L322.65-281.677z M309.203-275.604l-18.452,24.042
		l4.49,11.834l32.013-34.838l-4.604-7.111L309.203-275.604z M269.973-224.48l0.976,11.18l3.746-4.079l1.926-15.767L269.973-224.48z
		 M322.65-281.677l4.604,7.111l26.02-28.305l-22.693-0.602l-13.13,17.111L322.65-281.677z M230.396-169.18l40.553-44.12
		l-0.976-11.18l-41.582,54.199L230.396-169.18z M330.58-303.472l22.693,0.602l4.724-5.141l3.243-7.729l-5.52-7.065l-10.111-0.27
		L330.58-303.472z M357.997-308.011l5.017-5.46l-1.773-2.269L357.997-308.011z M355.721-322.804l-5.203-6.66l-4.908,6.39
		L355.721-322.804z M364.113-322.583l-8.393-0.221l5.52,7.065L364.113-322.583z M363.014-313.471l8.203-8.919l-7.104-0.193
		l-2.873,6.844L363.014-313.471z M350.518-329.464l5.203,6.66l8.393,0.221l4.802-11.428l-7.524-9.63L350.518-329.464z
		 M371.217-322.39l3.663-3.988l-5.965-7.633l-4.802,11.428L371.217-322.39z M376.408-351.856l10.528-25.079l-23.06,30.058
		L376.408-351.856z"/>
	<path opacity="0.1522" clip-path="url(#SVGID_2_)" fill="none" stroke="#00AFC0" stroke-miterlimit="10" d="M260.763-330.596
		l0.456,5.263l1.557,0.046L260.763-330.596z M337.037-323.299l9.057-11.815l-2.803-3.589l-36.711,14.593L337.037-323.299z
		 M330.58-303.473l15.029-19.602l-8.572-0.225l-15.042,19.596L330.58-303.473z M337.037-323.299l8.572,0.225l4.908-6.39l-4.424-5.65
		L337.037-323.299z M343.291-338.704l7.991-3.17l5.686-7.418l-20.758-26.553l-18.764,4.08L343.291-338.704z"/>
	<path opacity="0.1522" clip-path="url(#SVGID_2_)" fill="none" stroke="#00AFC0" stroke-miterlimit="10" d="M238.998-297.267
		l-12.039-8.98l-15.515-0.414l-30.38,110.404l41.164,22.596l46.853-61.076l-3.724-42.867L238.998-297.267z M278.284-246.724
		l-1.664,13.577l14.13-18.415l-2.894-7.642L278.284-246.724z M309.203-275.604l8.247-10.758l-5.175-4.665l-16.47,21.465
		L309.203-275.604z M287.857-259.203l2.894,7.642l18.452-24.042l-13.397,6.042L287.857-259.203z M269.081-234.736l0.893,10.256
		l6.647-8.667l1.664-13.577L269.081-234.736z M312.275-291.026l5.175,4.665l13.13-17.111l-8.585-0.231L312.275-291.026z
		 M222.228-173.661l6.164,3.38l41.582-54.199l-0.893-10.256L222.228-173.661z M268.897-309.148l16.138-6.413l-10.449-9.407
		l-11.81-0.318L268.897-309.148z M270.446-305.083l14.917,0.397l1.169-9.534l-1.497-1.342l-16.138,6.413L270.446-305.083z
		 M297.478-304.355l-10.946-9.864l-1.169,9.534L297.478-304.355z M226.958-306.247l32.449,0.866l3.425-1.355l-1.613-18.596
		l-44.309-1.179l-2.919,10.595L226.958-306.247z M306.58-324.111l-31.994-0.858l10.449,9.407L306.58-324.111z M268.897-309.148
		l-6.121-16.138l-1.557-0.046l1.613,18.596L268.897-309.148z M262.832-306.736l-3.425,1.355l3.555,0.099L262.832-306.736z
		 M285.035-315.562l1.497,1.342l10.946,9.864l24.517,0.652l15.042-19.596l-30.457-0.812L285.035-315.562z M262.962-305.282
		l7.483,0.199l-1.549-4.065l-6.065,2.412L262.962-305.282z M226.958-306.247l-12.967-9.669l-2.547,9.255L226.958-306.247z
		 M260.763-330.595l-0.643-7.41l-3.293-2.968L260.763-330.595z M262.776-325.287l11.81,0.318l-14.466-13.036l0.643,7.41
		L262.776-325.287z M216.91-326.511l44.309,1.179l-0.456-5.262l-3.936-10.378l3.293,2.968l-1.821-20.906l-34.545,7.512
		L216.91-326.511z M260.12-338.005l14.466,13.036l31.994,0.858l36.711-14.592l-25.845-33.062l-59.147,12.855L260.12-338.005z"/>
	<path opacity="0.1522" clip-path="url(#SVGID_2_)" fill="none" stroke="#00AFC0" stroke-miterlimit="10" d="M158.129-90.554
		l-5.842-1.099l-2.926,10.639L158.129-90.554z M158.129-90.554l2.051-2.233l12.358-16.102l-14.745-2.77l-5.507,20.005
		L158.129-90.554z M157.793-111.659l14.745,2.77l29.064-37.881l-16.58-23.95l-9.544-5.24L157.793-111.659z M160.18-92.787
		l14.444-15.717l-2.086-0.385L160.18-92.787z M174.624-108.504l30.502-33.182l-3.524-5.085l-29.064,37.881L174.624-108.504z
		 M185.022-170.721l-7.862-11.356l-1.683,6.116L185.022-170.721z M241.81-417.01l10.606-9.582l-0.41-4.701l-6.492,0.815
		L241.81-417.01z M258.542-432.12l-6.536,0.827l0.41,4.701L258.542-432.12z M209.614-157.227l-24.592-13.494l16.58,23.95
		L209.614-157.227z M201.602-146.771l3.524,5.085l7.994-8.705l2.651-3.45l-6.157-3.386L201.602-146.771z M216.123-153.654
		l-0.352-0.187l-2.651,3.45L216.123-153.654z M177.16-182.077l7.862,11.356l24.592,13.494l12.613-16.434l-41.164-22.597
		L177.16-182.077z M215.771-153.841l12.62-16.44l-6.164-3.38l-12.613,16.434L215.771-153.841z M285.66-264.983l-3.901-10.265
		l-1.549,12.719L285.66-264.983z M278.284-246.725l9.573-12.479l-2.197-5.779l-5.45,2.454L278.284-246.725z M285.363-304.686
		l-14.917-0.397l11.314,29.835L285.363-304.686z M281.759-275.248l3.901,10.265l10.145-4.579l16.47-21.466l-14.798-13.329
		l-12.115-0.33L281.759-275.248z M295.805-269.562l-10.145,4.579l2.197,5.779L295.805-269.562z M259.407-305.382l-32.449-0.866
		l12.039,8.98L259.407-305.382z M265.356-277.604l-2.394-27.679l-3.555-0.1l-20.41,8.114L265.356-277.604z M321.995-303.704
		l-24.518-0.652l14.798,13.329L321.995-303.704z M265.356-277.604l3.724,42.867l9.204-11.988l3.475-28.523l-11.314-29.835
		l-7.483-0.199L265.356-277.604z"/>
	<path opacity="0.1522" clip-path="url(#SVGID_2_)" fill="none" stroke="#00AFC0" stroke-miterlimit="10" d="M143.72-328.475
		l8.069-7.282l-20.439,4.442l-2.702,2.44L143.72-328.475z M121.071-329.075l-13.809-0.366l0.429,3.273L121.071-329.075z
		 M121.071-329.075l10.279-2.239l26.902-24.263l-52.914,11.499l1.924,14.638L121.071-329.075z M159.41-356.623l81.124-73.23
		l-134.086,16.87l-2.701,14.844L159.41-356.623z M105.337-344.079l52.914-11.499l1.158-1.046l-55.664-41.517l-3.197,17.589
		L105.337-344.079z M178.666-360.021l-18.432,4.01l7.661,5.712L178.666-360.021z M131.35-331.314l20.439-4.442l16.105-14.541
		l-7.661-5.712l-1.982,0.433L131.35-331.314z M160.233-356.01l18.432-4.01l63.145-56.989l3.705-13.467l-4.981,0.624l-81.124,73.23
		L160.233-356.01z M160.233-356.01l-0.824-0.613l-1.158,1.046L160.233-356.01z M101.231-400.017l2.515,1.877l2.701-14.844
		l-2.928,0.373L101.231-400.017z M100.549-380.55l3.197-17.589l-2.515-1.877l-1.881,10.339L100.549-380.55z M177.16-182.077
		l3.904-14.18l-22.112-12.135L177.16-182.077z M111.236-299.154l3.53,26.882l44.186,63.88l22.112,12.135l30.38-110.404
		l-89.259-2.387L111.236-299.154z M213.991-315.916l2.919-10.595l-17.768-0.479L213.991-315.916z M122.185-309.048l89.259,2.387
		l2.547-9.255l-14.849-11.074l-55.422-1.485L122.185-309.048z M199.142-326.99l17.768,0.479l6.844-24.887l-44.398,9.653
		L199.142-326.99z M143.72-328.475l55.422,1.485l-19.787-14.756l-27.566,5.989L143.72-328.475z M167.895-350.298l11.461,8.552
		l44.398-9.653l5.394-19.596l-50.482,10.974L167.895-350.298z M179.355-341.746l-11.461-8.552l-16.105,14.541L179.355-341.746z
		 M229.147-370.994l12.663-46.015l-63.145,56.989L229.147-370.994z M97.646-402.69l3.584,2.674l2.288-12.594l-7.061,0.886
		L97.646-402.69z M99.35-389.678l1.881-10.339l-3.584-2.674L99.35-389.678z"/>
	<path opacity="0.1522" clip-path="url(#SVGID_2_)" fill="none" stroke="#00AFC0" stroke-miterlimit="10" d="M95.999-299.396
		l11.138-10.053l-18.435-0.49L95.999-299.396z M107.137-309.448l-11.138,10.053l5.966,8.612l9.271-8.371l-1.341-10.214
		L107.137-309.448z M107.137-309.448l2.456-2.226l-1.902-14.494l-17.719,3.854l-2.041,11.265l0.772,1.111L107.137-309.448z
		 M109.895-309.369l-0.302-2.305l-2.456,2.226L109.895-309.369z M89.971-322.313l-2.976,0.646l-1.324,7.344l2.26,3.274
		L89.971-322.313z M107.262-329.441l-15.919-0.427l-1.372,7.555l17.719-3.854L107.262-329.441z M91.343-329.869l15.919,0.427
		l-1.924-14.637L93.458-341.5L91.343-329.869z M105.337-344.079l-4.789-36.472l-7.091,39.05L105.337-344.079z M89.971-322.313
		l10.578-58.237l-1.199-9.127l-12.355,68.011L89.971-322.313z M114.766-272.272l-3.53-26.882l-9.271,8.371L114.766-272.272z
		 M97.646-402.69l-1.188-9.034l-9.352,1.177L97.646-402.69z M99.35-389.678l-1.704-13.013l-10.539-7.857l-62.586,7.864l61.149,88.36
		l1.324-7.344L99.35-389.678z M149.36-81.014l2.926-10.639l-14.155-2.659l2.93,22.334L149.36-81.014z M138.132-94.312l14.155,2.659
		l5.507-20.005l-22.5-4.22L138.132-94.312z M157.793-111.658l17.685-64.302l-51.8-28.429l11.616,88.512L157.793-111.658z
		 M120.368-229.572l3.31,25.183l51.8,28.429l1.682-6.116l-18.208-26.315L120.368-229.572z M158.952-208.392l-44.186-63.88
		l5.602,42.7L158.952-208.392z M111.236-299.154l10.949-9.894l-12.29-0.32L111.236-299.154z M109.593-311.674l19.055-17.201
		l-7.577-0.201l-13.38,2.908L109.593-311.674z M128.647-328.875l2.702-2.439l-10.279,2.239L128.647-328.875z M109.593-311.674
		l0.302,2.305l12.29,0.32l21.535-19.426l-15.073-0.4L109.593-311.674z"/>
</g>
</svg>
