<?xml version="1.0" encoding="utf-8"?>
<!-- Generator: Adobe Illustrator 16.0.4, SVG Export Plug-In . SVG Version: 6.00 Build 0)  -->
<!DOCTYPE svg PUBLIC "-//W3C//DTD SVG 1.1//EN" "http://www.w3.org/Graphics/SVG/1.1/DTD/svg11.dtd">
<svg version="1.1" id="Layer_1" xmlns="http://www.w3.org/2000/svg" xmlns:xlink="http://www.w3.org/1999/xlink" x="0px" y="0px"
	 width="1200px" height="1200px" viewBox="-262.653 -293.261 1200 1200" enable-background="new -262.653 -293.261 1200 1200"
	 xml:space="preserve">
<path fill="#FFFFFF" d="M469.305,338.576c-21.464,21.044-55.884,20.535-76.965-0.878l-89.648-89.632l-20.528,20.528l41.107,41.107
	l64.35,64.349c21.494,21.073,21.663,55.921,0.575,77.422c-21.509,21.096-56.077,20.653-77.158-0.848L205.59,345.176l-20.631,20.631
	l105.242,105.249c32.296,32.938,85.578,33.255,118.516,0.951c23.713-24.178,29.87-59.394,18.478-89.204
	c22.482,1.084,45.332-6.732,62.631-23.691L469.305,338.576z"/>
<rect x="106.048" y="209.504" transform="matrix(-0.7071 0.7071 -0.7071 -0.7071 597.5847 201.0931)" fill="#FFFFFF" width="302.194" height="29.612"/>
<path fill="#FFFFFF" d="M395.503,148.981l-20.889,20.889c0,0,142.699,142.699,152.233,152.233c13.088-13.11,9.991-31.772-8.022-49.8
	C504.978,258.448,395.503,148.981,395.503,148.981z"/>
<path id="mark" fill="#F8F8F8" d="M678.543-186.774C405.968-375.209,32.25-306.985-156.17-34.441
	C-344.575,238.15-276.352,611.867-3.807,800.272c272.59,188.404,646.279,120.196,834.669-152.365
	C1019.251,375.35,951.072,1.63,678.543-186.774z M-29.134,379.143l-43.462-43.461l443.489-443.504l43.463,43.463L-29.134,379.143z
	 M485.485,649.761c-68.361,67.046-178.947,66.388-245.978-1.974L21.061,429.341l42.821-42.82L282.741,605.38
	c43.738,44.625,115.499,45.558,160.14,1.76c43.768-44.625,43.418-116.953-1.194-160.69L308.129,312.894l-85.317-85.318
	l42.605-42.605l186.05,186.032c43.75,44.442,115.189,45.498,159.739,1.821l42.606,42.621
	c-35.904,35.198-83.329,51.42-129.991,49.172C547.482,526.488,534.704,599.579,485.485,649.761z M730.653,338.635
	C710.865,318.847,414.692,22.674,414.692,22.674l43.354-43.356c0,0,227.215,227.2,255.957,255.956
	C751.39,272.691,757.817,311.424,730.653,338.635z"/>
</svg>
