<?xml version="1.0" encoding="utf-8"?>
<!-- Generator: Adobe Illustrator 16.0.4, SVG Export Plug-In . SVG Version: 6.00 Build 0)  -->
<!DOCTYPE svg PUBLIC "-//W3C//DTD SVG 1.1//EN" "http://www.w3.org/Graphics/SVG/1.1/DTD/svg11.dtd">
<svg version="1.1" id="Layer_1" xmlns="http://www.w3.org/2000/svg" xmlns:xlink="http://www.w3.org/1999/xlink" x="0px" y="0px"
	 width="409.48px" height="197.99px" viewBox="306.101 89.601 409.48 197.99" enable-background="new 306.101 89.601 409.48 197.99"
	 xml:space="preserve">
<g id="bossy_x5F_logotype">
	<polygon fill="#948F8F" points="610.76,230.831 592.368,254.147 570.237,230.831 563.951,230.831 589.227,258.127 570.781,281.513 
		577.082,281.356 616.984,230.831 	"/>
	<path fill="#948F8F" d="M414.8,281.629h-22.273c-7.725,0-14.01-6.282-14.01-14.008v-22.936c0-7.727,6.285-14.011,14.01-14.011
		H414.8c7.724,0,14.01,6.284,14.01,14.011v22.936C428.81,275.347,422.524,281.629,414.8,281.629 M392.527,235.538
		c-5.043,0-9.147,4.104-9.147,9.148v22.935c0,5.043,4.105,9.146,9.147,9.146H414.8c5.043,0,9.147-4.104,9.147-9.146v-22.935
		c0-5.045-4.104-9.148-9.147-9.148H392.527z"/>
	<path fill="#948F8F" d="M671.004,281.629h-13.721c-7.728,0-14.012-6.282-14.012-14.008v-36.889h4.862v36.888
		c0,5.043,4.105,9.146,9.149,9.146h19.425C676.708,279.509,673.626,281.629,671.004,281.629"/>
	<path fill="#948F8F" d="M478.421,253.545h-21.022c-5.043,0-9.15-4.041-9.15-9.086c0-5.046,4.106-9.154,9.15-9.154h32.15
		c0-2.833-2.504-4.861-6.286-4.861h-25.865c-7.726,0-14.011,6.291-14.011,14.016c0,7.723,6.285,13.947,14.011,13.947h21.022
		c5.043,0,9.147,3.969,9.147,9.014s-4.104,9.081-9.147,9.081h-33.335c0,3.42,2.829,4.862,7.152,4.862h26.184
		c7.725,0,14.008-6.218,14.008-13.943C492.429,259.696,486.146,253.545,478.421,253.545"/>
	<path fill="#948F8F" d="M541.393,253.545h-21.021c-5.044,0-9.149-4.041-9.149-9.086c0-5.046,4.105-9.154,9.149-9.154h32.15
		c0-2.833-2.504-4.861-6.287-4.861h-25.863c-7.726,0-14.011,6.291-14.011,14.016c0,7.723,6.285,13.947,14.011,13.947h21.021
		c5.043,0,9.148,3.969,9.148,9.014s-4.105,9.081-9.148,9.081h-33.335c0,3.42,2.83,4.862,7.152,4.862h26.183
		c7.727,0,14.011-6.218,14.011-13.943C555.403,259.696,549.119,253.545,541.393,253.545"/>
	<path fill="#948F8F" d="M355.391,254.782c2.792-2.534,4.573-6.168,4.611-10.224h-4.862c-0.05,5.04-4.195,9.062-9.237,9.011h-22.818
		v4.861h26.583c5.042-0.047,9.186,4.059,9.236,9.102c-0.05,5.045-4.194,9.086-9.236,9.037h-26.583v4.887h26.535
		c7.726,0.074,14.072-6.198,14.147-13.924C363.711,261.86,360.271,256.962,355.391,254.782"/>
	<path fill="#948F8F" d="M707.561,281.508v-50.537h4.838v46.275C712.398,280.526,709.884,281.508,707.561,281.508"/>
	<path fill="#948F8F" d="M360,235.667h-37.658v-4.946h30.811C357.427,230.721,360,232.565,360,235.667"/>
	<rect x="312.398" y="230.721" fill="#948F8F" width="4.959" height="50.734"/>
	<rect x="680.938" y="230.845" fill="#948F8F" width="4.958" height="50.61"/>
</g>
<path id="bossy_x5F_logo_x5F_mark" fill="#00ADA7" d="M537.432,99.271c-19.641-13.578-46.567-8.662-60.143,10.975
	c-13.576,19.641-8.66,46.566,10.977,60.142c19.638,13.575,46.567,8.662,60.142-10.978
	C561.982,139.772,557.069,112.846,537.432,99.271 M486.441,140.043l-3.131-3.13l31.955-31.955l3.132,3.131L486.441,140.043z
	 M523.521,159.543c-4.925,4.831-12.894,4.784-17.723-0.141l-15.739-15.74l3.085-3.085l15.769,15.769
	c3.151,3.216,8.32,3.283,11.538,0.127c3.154-3.215,3.128-8.427-0.084-11.578l-9.624-9.624l-6.149-6.147l3.072-3.069l13.405,13.404
	c3.152,3.203,8.298,3.277,11.509,0.13l3.07,3.072c-2.588,2.535-6.006,3.706-9.367,3.542
	C527.987,150.662,527.065,155.929,523.521,159.543 M541.185,137.126c-1.425-1.425-22.766-22.765-22.766-22.765l3.125-3.124
	c0,0,16.371,16.37,18.44,18.442C542.683,132.375,543.146,135.167,541.185,137.126"/>
</svg>
