<?xml version="1.0" encoding="utf-8"?>
<!-- Generator: Adobe Illustrator 16.0.4, SVG Export Plug-In . SVG Version: 6.00 Build 0)  -->
<!DOCTYPE svg PUBLIC "-//W3C//DTD SVG 1.1//EN" "http://www.w3.org/Graphics/SVG/1.1/DTD/svg11.dtd">
<svg version="1.1" id="svg-logo" xmlns="http://www.w3.org/2000/svg" xmlns:xlink="http://www.w3.org/1999/xlink" x="0px" y="0px"
	 viewBox="192.083 50.667 200 40" enable-background="new 192.083 50.667 200 40" xml:space="preserve"
	>
<polygon fill="#595959" points="345.428,69.338 337.499,60.981 335.244,60.981 344.303,70.765 337.692,79.147 339.95,79.089
	354.25,60.981 352.019,60.981 "/>
<path fill="#595959" d="M286.811,74.167v-8.22c0-2.769-2.253-5.021-5.021-5.021h-7.983c-2.768,0-5.021,2.253-5.021,5.021v8.22
	c0,2.77,2.253,5.021,5.021,5.021h7.983C284.558,79.189,286.811,76.937,286.811,74.167z M285.068,74.167
	c0,1.808-1.471,3.279-3.278,3.279h-7.983c-1.807,0-3.278-1.472-3.278-3.279v-8.219c0-1.81,1.471-3.279,3.278-3.279v0h7.983
	c1.808,0,3.278,1.47,3.278,3.278V74.167z"/>
<path fill="#595959" d="M365.415,74.167V60.947h-1.743v13.221c0,2.77,2.253,5.02,5.021,5.02h4.918c0.939,0,2.044-0.759,2.044-1.742
	h-6.962C366.886,77.445,365.415,75.975,365.415,74.167z"/>
<path fill="#595959" d="M292.036,65.867c0,2.769,2.254,4.999,5.022,4.999h7.533c1.808,0,3.278,1.421,3.278,3.23
	s-1.471,3.255-3.278,3.255h-11.947c0,1.225,1.015,1.743,2.563,1.743h9.384c2.769,0,5.021-2.229,5.021-4.998
	c0-2.769-2.252-4.974-5.021-4.974h-7.533c-1.809,0-3.28-1.448-3.28-3.255c0-1.81,1.472-3.281,3.28-3.281h11.521
	c0-1.014-0.895-1.74-2.246-1.742h-9.28C294.287,60.846,292.036,63.099,292.036,65.867z"/>
<path fill="#595959" d="M314.604,65.867c0,2.769,2.252,4.999,5.021,4.999h7.535c1.808,0,3.278,1.421,3.278,3.23
	s-1.471,3.255-3.278,3.255h-11.946c0,1.225,1.014,1.743,2.562,1.743h9.384c2.768,0,5.021-2.229,5.021-4.998
	c0-2.769-2.252-4.974-5.021-4.974h-7.535c-1.807,0-3.278-1.448-3.278-3.255c0-1.81,1.472-3.281,3.278-3.281h11.524
	c0-1.014-0.896-1.74-2.247-1.742h-9.282C316.853,60.846,314.604,63.099,314.604,65.867z"/>
<path fill="#595959" d="M260.498,69.566c1-0.908,1.639-2.21,1.652-3.664h-1.743c-0.018,1.806-1.503,3.248-3.31,3.23h-8.178v1.742
	h9.527c1.807-0.018,3.292,1.453,3.31,3.261c-0.018,1.809-1.503,3.257-3.31,3.239h-9.527v1.752h9.51
	c2.77,0.027,5.044-2.223,5.07-4.991C263.48,72.104,262.247,70.349,260.498,69.566z"/>
<path fill="#595959" d="M386.712,79.145c0.832,0,1.732-0.353,1.732-1.527V61.032h-1.732V79.145z"/>
<path fill="#595959" d="M259.697,60.943h-11.042v1.772h13.496C262.151,61.603,261.228,60.943,259.697,60.943z"/>
<rect x="245.09" y="60.943" fill="#595959" width="1.778" height="18.183"/>
<rect x="377.171" y="60.987" fill="#595959" width="1.775" height="18.139"/>
<path fill="#595959" d="M217.982,73.04l1.101,1.1L217.982,73.04c-0.863,0.845-2.116,1.041-3.166,0.603
	C215.866,74.081,217.119,73.885,217.982,73.04z"/>
<path fill="#595959" d="M212.993,64.083c0.842,0.842,7.593,7.594,8.073,8.075C220.587,71.677,213.835,64.925,212.993,64.083z"/>
<polygon fill="#595959" points="208.502,68.738 207.952,69.288 210.156,71.491 207.953,69.288 "/>
<polygon fill="#595959" points="209.053,68.188 209.052,68.189 211.455,70.59 "/>
<polygon fill="#595959" points="205.904,75.448 203.849,73.392 202.744,74.499 203.849,73.394 "/>
<path fill="#595959" d="M214.254,75.903c0.435,1.057,0.229,2.322-0.619,3.187c-0.432,0.424-0.963,0.686-1.517,0.786
	c0.554-0.101,1.085-0.362,1.517-0.786C214.483,78.225,214.689,76.958,214.254,75.903z"/>
<polygon fill="#595959" points="201.447,73.203 212.899,61.75 201.447,73.202 "/>
<path class="logo-mark" fill="#595959" d="M202.102,84.077c7.038,4.866,16.688,3.104,21.553-3.935c4.864-7.038,3.104-16.689-3.934-21.553
	c-7.039-4.866-16.689-3.104-21.555,3.934C193.301,69.562,195.063,79.211,202.102,84.077z M214.735,80.191
	c-0.221,0.217-0.458,0.405-0.708,0.567c-1.753,1.133-4.128,0.927-5.643-0.619l-5.64-5.641l1.105-1.106l2.055,2.056l3.597,3.596
	c0.706,0.72,1.694,1,2.618,0.832c0.554-0.101,1.084-0.362,1.517-0.786c0.847-0.864,1.054-2.13,0.619-3.187
	c-0.145-0.352-0.361-0.68-0.649-0.962l-3.449-3.45l-2.204-2.203l0.55-0.55l0.55-0.55v0l0,0l2.402,2.402l2.403,2.402
	c0.282,0.286,0.609,0.503,0.959,0.649c1.049,0.438,2.303,0.242,3.166-0.604l1.101,1.101c-0.928,0.91-2.152,1.329-3.356,1.271
	C216.336,77.007,216.006,78.894,214.735,80.191z M214.027,62.877c0,0,5.868,5.867,6.609,6.61c0.967,0.965,1.133,1.966,0.43,2.67
	c-0.479-0.48-7.23-7.232-8.073-8.075c-0.056-0.056-0.086-0.086-0.086-0.086L214.027,62.877z M211.776,60.627l1.123,1.123
	l-11.452,11.453l0-0.001l0,0.001l-1.122-1.123L211.776,60.627z"/>
<polygon fill="#595959" points="209.052,68.188 208.502,68.738 209.052,68.189 "/>
<path fill="#595959" d="M210.156,71.491l3.449,3.45c0.288,0.282,0.504,0.61,0.649,0.962c-0.145-0.353-0.362-0.682-0.65-0.964
	L210.156,71.491z"/>
<path fill="#595959" d="M214.816,73.642c-0.35-0.146-0.677-0.363-0.959-0.649l-2.403-2.402l2.402,2.402
	C214.139,73.28,214.467,73.496,214.816,73.642z"/>
<path fill="#595959" d="M215.725,75.409c0.611,1.599,0.281,3.485-0.99,4.782C216.006,78.894,216.336,77.007,215.725,75.409
	c1.206,0.06,2.43-0.359,3.357-1.27C218.156,75.047,216.931,75.468,215.725,75.409z"/>
<path fill="#595959" d="M208.384,80.139c1.515,1.546,3.89,1.752,5.643,0.619C212.274,81.891,209.898,81.684,208.384,80.139z"/>
<path fill="#595959" d="M212.119,79.875c-0.924,0.168-1.912-0.112-2.618-0.832l-3.597-3.596l3.596,3.598
	C210.206,79.764,211.195,80.043,212.119,79.875z"/>
<polygon fill="#595959" points="201.447,73.202 200.325,72.08 201.446,73.203 "/>
<path fill="#595959" d="M221.066,72.157c0.703-0.704,0.537-1.705-0.43-2.67C221.603,70.453,221.768,71.454,221.066,72.157z"/>
</svg>
