<?xml version="1.0" encoding="utf-8"?>
<!-- Generator: Adobe Illustrator 16.0.4, SVG Export Plug-In . SVG Version: 6.00 Build 0)  -->
<!DOCTYPE svg PUBLIC "-//W3C//DTD SVG 1.1//EN" "http://www.w3.org/Graphics/SVG/1.1/DTD/svg11.dtd">
<svg version="1.1" id="Layer_1" xmlns="http://www.w3.org/2000/svg" xmlns:xlink="http://www.w3.org/1999/xlink" x="0px" y="0px"
	 viewBox="0 0 85 83" enable-background="new 0 0 85 83" xml:space="preserve">
<path fill="#FFFFFF" d="M60.098,45.918c-2.911,2.854-7.579,2.785-10.438-0.119L37.502,33.643l-2.784,2.784l5.575,5.575l8.727,8.727
	c2.915,2.858,2.938,7.584,0.078,10.5c-2.917,2.861-7.605,2.801-10.464-0.115L24.333,46.813l-2.798,2.798l14.273,14.274
	c4.38,4.467,11.606,4.51,16.073,0.129c3.216-3.279,4.051-8.055,2.506-12.098c3.049,0.147,6.148-0.913,8.494-3.213L60.098,45.918z"/>
<rect x="10.833" y="28.413" transform="matrix(0.7071 -0.7071 0.7071 0.7071 -12.3358 31.0603)" fill="#FFFFFF" width="40.984" height="4.016"/>
<path fill="#FFFFFF" d="M50.089,20.205l-2.833,2.833c0,0,19.353,19.353,20.646,20.646c1.775-1.778,1.355-4.309-1.088-6.754
	C64.936,35.051,50.089,20.205,50.089,20.205z"/>
<path id="mark" fill="#58595B" d="M64.497,9.352C46.686-2.961,22.266,1.497,9.954,19.306C-2.357,37.118,2.101,61.538,19.91,73.849
	c17.812,12.311,42.23,7.854,54.54-9.956C86.76,46.083,82.305,21.663,64.497,9.352z M18.255,46.331l-2.84-2.84l28.979-28.98
	l2.84,2.84L18.255,46.331z M51.882,64.014c-4.467,4.381-11.693,4.338-16.073-0.129L21.535,49.611l2.798-2.798l14.301,14.301
	c2.858,2.916,7.547,2.977,10.464,0.115c2.86-2.916,2.837-7.642-0.078-10.5l-8.727-8.727l-5.575-5.575l2.784-2.784l12.157,12.156
	c2.859,2.904,7.527,2.973,10.438,0.119l2.784,2.785c-2.346,2.3-5.445,3.36-8.494,3.213C55.933,55.959,55.098,60.735,51.882,64.014z
	 M67.902,43.684c-1.293-1.293-20.646-20.646-20.646-20.646l2.833-2.833c0,0,14.847,14.846,16.725,16.725
	C69.257,39.375,69.677,41.906,67.902,43.684z"/>
</svg>
